<svg width="24" height="17" viewBox="0 0 24 17" fill="none" xmlns="http://www.w3.org/2000/svg">
<path d="M16.111 8.58583L21.7496 3.53956V13.5745L16.111 8.58583ZM8.84516 9.44041L10.8252 11.211C11.136 11.4829 11.5412 11.6472 11.984 11.6472H12.0115C12.4551 11.6472 12.8603 11.482 13.1748 11.2081L13.172 11.21L15.1521 9.43947L21.1712 14.7643H2.82883L8.84516 9.44041ZM2.82058 2.34315H21.1822L12.3626 10.2336C12.2634 10.3144 12.1406 10.3583 12.0142 10.3583H11.9895C11.8626 10.3584 11.7394 10.3141 11.6402 10.2327L11.6411 10.2336L2.82058 2.34315ZM2.2513 3.53862L7.88904 8.58489L2.2513 13.5707V3.53862ZM22.0521 1.23361C21.8321 1.1203 21.5736 1.0542 21.2995 1.0542H2.70415C2.43846 1.05426 2.17641 1.11795 1.93871 1.24022L1.94879 1.2355C1.66422 1.38008 1.42457 1.60375 1.25691 1.88125C1.08925 2.15874 1.00026 2.479 1 2.80585V14.2997C1.00049 14.7649 1.18009 15.2108 1.4994 15.5398C1.81872 15.8687 2.25166 16.0537 2.70324 16.0542H21.2968C21.7483 16.0537 22.1813 15.8687 22.5006 15.5398C22.8199 15.2108 22.9995 14.7649 23 14.2997V2.80585C23 2.11936 22.6159 1.52445 22.0567 1.23834L22.0466 1.23361H22.0521Z" fill="white" stroke="white" stroke-width="0.5"/>
</svg>
