<?xml version="1.0" encoding="utf-8"?>
<!-- Generator: Adobe Illustrator 27.1.0, SVG Export Plug-In . SVG Version: 6.00 Build 0)  -->
<svg version="1.1" id="Capa_1" xmlns="http://www.w3.org/2000/svg" xmlns:xlink="http://www.w3.org/1999/xlink" x="0px" y="0px"
	 viewBox="0 0 21 20" style="enable-background:new 0 0 21 20;" xml:space="preserve">
<style type="text/css">
	.st0{fill:#FFFFFF;}
</style>
<g>
	<path class="st0" d="M17.5,2.8H3.7c-2,0-3.6,1.6-3.6,3.6v7.3c0,2,1.6,3.6,3.6,3.6h13.8c2,0,3.6-1.6,3.6-3.6V6.4
		C21.1,4.4,19.4,2.8,17.5,2.8z M3.7,4.6h13.8c0.4,0,0.7,0.1,1,0.3L11,11.1c-0.2,0.2-0.6,0.2-0.8,0L2.7,4.9C2.9,4.7,3.3,4.6,3.7,4.6z
		 M19.2,13.6c0,1-0.8,1.8-1.8,1.8H3.7c-1,0-1.8-0.8-1.8-1.8v-7L9,12.5c0.5,0.4,1,0.6,1.6,0.6c0.6,0,1.1-0.2,1.6-0.6l7.1-5.9V13.6z"
		/>
</g>
</svg>
