<svg width="600" height="50" viewBox="0 0 600 50" fill="none" xmlns="http://www.w3.org/2000/svg">
<rect width="600" height="50" rx="25" fill="#C61616"/>
<path d="M204.43 17.4545V32H201.774L195.446 22.8452H195.339V32H192.264V17.4545H194.963L201.241 26.6023H201.369V17.4545H204.43ZM211.843 32.2131C210.74 32.2131 209.786 31.9787 208.981 31.5099C208.181 31.0365 207.563 30.3783 207.127 29.5355C206.692 28.688 206.474 27.7055 206.474 26.5881C206.474 25.4612 206.692 24.4763 207.127 23.6335C207.563 22.786 208.181 22.1278 208.981 21.6591C209.786 21.1856 210.74 20.9489 211.843 20.9489C212.947 20.9489 213.898 21.1856 214.699 21.6591C215.503 22.1278 216.124 22.786 216.559 23.6335C216.995 24.4763 217.213 25.4612 217.213 26.5881C217.213 27.7055 216.995 28.688 216.559 29.5355C216.124 30.3783 215.503 31.0365 214.699 31.5099C213.898 31.9787 212.947 32.2131 211.843 32.2131ZM211.858 29.8693C212.359 29.8693 212.779 29.7273 213.115 29.4432C213.451 29.1544 213.704 28.7614 213.875 28.2642C214.05 27.767 214.137 27.2012 214.137 26.5668C214.137 25.9323 214.05 25.3665 213.875 24.8693C213.704 24.3722 213.451 23.9792 213.115 23.6903C212.779 23.4015 212.359 23.2571 211.858 23.2571C211.351 23.2571 210.925 23.4015 210.579 23.6903C210.238 23.9792 209.98 24.3722 209.805 24.8693C209.635 25.3665 209.549 25.9323 209.549 26.5668C209.549 27.2012 209.635 27.767 209.805 28.2642C209.98 28.7614 210.238 29.1544 210.579 29.4432C210.925 29.7273 211.351 29.8693 211.858 29.8693ZM228.257 24.2017L225.487 24.3722C225.44 24.1354 225.338 23.9223 225.181 23.733C225.025 23.5388 224.819 23.3849 224.564 23.2713C224.313 23.1529 224.012 23.0938 223.662 23.0938C223.193 23.0938 222.797 23.1932 222.475 23.392C222.154 23.5862 221.993 23.8466 221.993 24.1733C221.993 24.4337 222.097 24.6539 222.305 24.8338C222.513 25.0137 222.871 25.1581 223.377 25.267L225.352 25.6648C226.413 25.8826 227.203 26.233 227.724 26.7159C228.245 27.1989 228.505 27.8333 228.505 28.6193C228.505 29.3343 228.295 29.9616 227.873 30.5014C227.457 31.0412 226.884 31.4626 226.154 31.7656C225.43 32.0639 224.594 32.2131 223.647 32.2131C222.203 32.2131 221.053 31.9124 220.196 31.3111C219.343 30.705 218.844 29.8812 218.697 28.8395L221.673 28.6832C221.763 29.1236 221.981 29.4598 222.326 29.6918C222.672 29.919 223.115 30.0327 223.654 30.0327C224.185 30.0327 224.611 29.9309 224.933 29.7273C225.26 29.5189 225.425 29.2514 225.43 28.9247C225.425 28.6501 225.309 28.4252 225.082 28.25C224.855 28.0701 224.504 27.9328 224.031 27.8381L222.142 27.4616C221.076 27.2486 220.283 26.8793 219.762 26.3537C219.246 25.8281 218.988 25.1581 218.988 24.3438C218.988 23.643 219.178 23.0393 219.556 22.5327C219.94 22.026 220.477 21.6354 221.169 21.3608C221.865 21.0862 222.679 20.9489 223.612 20.9489C224.99 20.9489 226.074 21.2401 226.865 21.8224C227.66 22.4048 228.124 23.1979 228.257 24.2017ZM238.15 32.206C237.454 32.206 236.834 32.0852 236.289 31.8438C235.745 31.5975 235.314 31.2353 234.997 30.7571C234.684 30.2741 234.528 29.6728 234.528 28.9531C234.528 28.3471 234.639 27.8381 234.862 27.4261C235.084 27.0142 235.387 26.6828 235.771 26.4318C236.154 26.1809 236.59 25.9915 237.078 25.8636C237.57 25.7358 238.086 25.6458 238.626 25.5938C239.261 25.5275 239.772 25.4659 240.16 25.4091C240.548 25.3475 240.83 25.2576 241.005 25.1392C241.181 25.0208 241.268 24.8456 241.268 24.6136V24.571C241.268 24.1212 241.126 23.7732 240.842 23.527C240.563 23.2808 240.165 23.1577 239.649 23.1577C239.104 23.1577 238.671 23.2784 238.349 23.5199C238.027 23.7566 237.814 24.0549 237.71 24.4148L234.912 24.1875C235.054 23.5246 235.333 22.9517 235.75 22.4688C236.166 21.9811 236.704 21.607 237.362 21.3466C238.025 21.0814 238.792 20.9489 239.663 20.9489C240.269 20.9489 240.849 21.0199 241.403 21.1619C241.962 21.304 242.457 21.5241 242.887 21.8224C243.323 22.1207 243.666 22.5043 243.917 22.973C244.168 23.437 244.294 23.9934 244.294 24.642V32H241.424V30.4872H241.339C241.164 30.8281 240.93 31.1288 240.636 31.3892C240.342 31.6449 239.99 31.8461 239.578 31.9929C239.166 32.1349 238.69 32.206 238.15 32.206ZM239.017 30.1179C239.462 30.1179 239.855 30.0303 240.196 29.8551C240.537 29.6752 240.804 29.4337 240.998 29.1307C241.192 28.8277 241.289 28.4844 241.289 28.1009V26.9432C241.195 27.0047 241.065 27.0616 240.899 27.1136C240.738 27.161 240.556 27.206 240.352 27.2486C240.148 27.2865 239.945 27.322 239.741 27.3551C239.538 27.3835 239.353 27.4096 239.187 27.4332C238.832 27.4853 238.522 27.5682 238.257 27.6818C237.992 27.7955 237.786 27.9493 237.639 28.1435C237.492 28.3329 237.419 28.5696 237.419 28.8537C237.419 29.2656 237.568 29.5805 237.866 29.7983C238.169 30.0114 238.553 30.1179 239.017 30.1179ZM250.661 32.1776C249.832 32.1776 249.082 31.9645 248.409 31.5384C247.742 31.1075 247.212 30.4754 246.819 29.642C246.43 28.804 246.236 27.7765 246.236 26.5597C246.236 25.3097 246.437 24.2704 246.84 23.4418C247.242 22.6084 247.777 21.9858 248.445 21.5739C249.117 21.1572 249.854 20.9489 250.654 20.9489C251.265 20.9489 251.774 21.053 252.181 21.2614C252.593 21.465 252.924 21.7206 253.175 22.0284C253.431 22.3314 253.625 22.6297 253.757 22.9233H253.85V17.4545H256.868V32H253.885V30.2528H253.757C253.615 30.5559 253.414 30.8565 253.154 31.1548C252.898 31.4484 252.564 31.6922 252.152 31.8864C251.745 32.0805 251.248 32.1776 250.661 32.1776ZM251.62 29.7699C252.107 29.7699 252.519 29.6373 252.855 29.3722C253.196 29.1023 253.457 28.7259 253.637 28.2429C253.821 27.7599 253.914 27.1941 253.914 26.5455C253.914 25.8968 253.824 25.3333 253.644 24.8551C253.464 24.3769 253.203 24.0076 252.863 23.7472C252.522 23.4867 252.107 23.3565 251.62 23.3565C251.123 23.3565 250.703 23.4915 250.363 23.7614C250.022 24.0312 249.764 24.4053 249.588 24.8835C249.413 25.3617 249.326 25.9157 249.326 26.5455C249.326 27.1799 249.413 27.741 249.588 28.2287C249.768 28.7116 250.026 29.0904 250.363 29.3651C250.703 29.6349 251.123 29.7699 251.62 29.7699ZM262.381 25.6932V32H259.356V17.4545H262.296V23.0156H262.424C262.67 22.3717 263.068 21.8674 263.617 21.5028C264.166 21.1335 264.855 20.9489 265.684 20.9489C266.442 20.9489 267.102 21.1146 267.665 21.446C268.234 21.7727 268.674 22.2438 268.987 22.8594C269.304 23.4702 269.46 24.2017 269.455 25.054V32H266.43V25.5938C266.434 24.9214 266.264 24.3982 265.918 24.0241C265.577 23.6501 265.099 23.4631 264.484 23.4631C264.072 23.4631 263.707 23.5507 263.39 23.7259C263.077 23.901 262.831 24.1567 262.651 24.4929C262.476 24.8243 262.386 25.2244 262.381 25.6932ZM276.808 32.2131C275.686 32.2131 274.72 31.9858 273.91 31.5312C273.105 31.072 272.485 30.4233 272.049 29.5852C271.614 28.7424 271.396 27.7457 271.396 26.5952C271.396 25.473 271.614 24.4882 272.049 23.6406C272.485 22.7931 273.098 22.1326 273.889 21.6591C274.684 21.1856 275.617 20.9489 276.687 20.9489C277.407 20.9489 278.077 21.0649 278.697 21.2969C279.322 21.5241 279.867 21.8674 280.331 22.3267C280.799 22.786 281.164 23.3636 281.424 24.0597C281.685 24.7509 281.815 25.5606 281.815 26.4886V27.3196H272.603V25.4446H278.967C278.967 25.009 278.872 24.6231 278.683 24.2869C278.493 23.9508 278.231 23.688 277.895 23.4986C277.563 23.3045 277.177 23.2074 276.737 23.2074C276.278 23.2074 275.87 23.3139 275.515 23.527C275.165 23.7353 274.89 24.017 274.691 24.3722C274.493 24.7225 274.391 25.1132 274.386 25.544V27.3267C274.386 27.8665 274.485 28.3329 274.684 28.7259C274.888 29.1188 275.174 29.4219 275.544 29.6349C275.913 29.848 276.351 29.9545 276.858 29.9545C277.194 29.9545 277.502 29.9072 277.781 29.8125C278.06 29.7178 278.299 29.5758 278.498 29.3864C278.697 29.197 278.849 28.965 278.953 28.6903L281.751 28.875C281.609 29.5473 281.318 30.1345 280.877 30.6364C280.442 31.1335 279.878 31.5218 279.187 31.8011C278.501 32.0758 277.708 32.2131 276.808 32.2131ZM283.789 32V21.0909H286.723V22.9943H286.836C287.035 22.3172 287.369 21.8059 287.838 21.4602C288.306 21.1098 288.846 20.9347 289.457 20.9347C289.609 20.9347 289.772 20.9441 289.947 20.9631C290.122 20.982 290.276 21.008 290.409 21.0412V23.7259C290.267 23.6832 290.07 23.6454 289.819 23.6122C289.568 23.5791 289.339 23.5625 289.13 23.5625C288.685 23.5625 288.288 23.6596 287.937 23.8537C287.592 24.0431 287.317 24.3082 287.113 24.6491C286.914 24.9901 286.815 25.383 286.815 25.8281V32H283.789ZM291.973 32V21.0909H294.999V32H291.973ZM293.493 19.6847C293.043 19.6847 292.657 19.5355 292.335 19.2372C292.018 18.9342 291.859 18.572 291.859 18.1506C291.859 17.7339 292.018 17.3764 292.335 17.0781C292.657 16.7751 293.043 16.6236 293.493 16.6236C293.943 16.6236 294.326 16.7751 294.643 17.0781C294.965 17.3764 295.126 17.7339 295.126 18.1506C295.126 18.572 294.965 18.9342 294.643 19.2372C294.326 19.5355 293.943 19.6847 293.493 19.6847ZM297.422 32V21.0909H300.306V23.0156H300.434C300.661 22.3764 301.04 21.8722 301.57 21.5028C302.1 21.1335 302.735 20.9489 303.473 20.9489C304.221 20.9489 304.858 21.1359 305.384 21.5099C305.909 21.8793 306.26 22.3812 306.435 23.0156H306.549C306.771 22.3906 307.174 21.8911 307.756 21.517C308.343 21.1383 309.037 20.9489 309.837 20.9489C310.855 20.9489 311.681 21.2732 312.316 21.9219C312.955 22.5658 313.275 23.4796 313.275 24.6634V32H310.256V25.2599C310.256 24.6539 310.095 24.1993 309.773 23.8963C309.451 23.5933 309.049 23.4418 308.566 23.4418C308.016 23.4418 307.588 23.617 307.28 23.9673C306.972 24.313 306.819 24.7699 306.819 25.3381V32H303.885V25.196C303.885 24.661 303.731 24.2348 303.424 23.9176C303.121 23.6004 302.721 23.4418 302.223 23.4418C301.887 23.4418 301.584 23.527 301.314 23.6974C301.049 23.8632 300.838 24.0975 300.682 24.4006C300.526 24.6989 300.448 25.0492 300.448 25.4517V32H297.422ZM320.593 32.2131C319.49 32.2131 318.536 31.9787 317.731 31.5099C316.931 31.0365 316.313 30.3783 315.877 29.5355C315.442 28.688 315.224 27.7055 315.224 26.5881C315.224 25.4612 315.442 24.4763 315.877 23.6335C316.313 22.786 316.931 22.1278 317.731 21.6591C318.536 21.1856 319.49 20.9489 320.593 20.9489C321.697 20.9489 322.648 21.1856 323.449 21.6591C324.253 22.1278 324.874 22.786 325.309 23.6335C325.745 24.4763 325.963 25.4612 325.963 26.5881C325.963 27.7055 325.745 28.688 325.309 29.5355C324.874 30.3783 324.253 31.0365 323.449 31.5099C322.648 31.9787 321.697 32.2131 320.593 32.2131ZM320.608 29.8693C321.109 29.8693 321.529 29.7273 321.865 29.4432C322.201 29.1544 322.454 28.7614 322.625 28.2642C322.8 27.767 322.887 27.2012 322.887 26.5668C322.887 25.9323 322.8 25.3665 322.625 24.8693C322.454 24.3722 322.201 23.9792 321.865 23.6903C321.529 23.4015 321.109 23.2571 320.608 23.2571C320.101 23.2571 319.675 23.4015 319.329 23.6903C318.988 23.9792 318.73 24.3722 318.555 24.8693C318.385 25.3665 318.299 25.9323 318.299 26.5668C318.299 27.2012 318.385 27.767 318.555 28.2642C318.73 28.7614 318.988 29.1544 319.329 29.4432C319.675 29.7273 320.101 29.8693 320.608 29.8693ZM337.007 24.2017L334.237 24.3722C334.19 24.1354 334.088 23.9223 333.931 23.733C333.775 23.5388 333.569 23.3849 333.314 23.2713C333.063 23.1529 332.762 23.0938 332.412 23.0938C331.943 23.0938 331.547 23.1932 331.225 23.392C330.904 23.5862 330.743 23.8466 330.743 24.1733C330.743 24.4337 330.847 24.6539 331.055 24.8338C331.263 25.0137 331.621 25.1581 332.127 25.267L334.102 25.6648C335.163 25.8826 335.953 26.233 336.474 26.7159C336.995 27.1989 337.255 27.8333 337.255 28.6193C337.255 29.3343 337.045 29.9616 336.623 30.5014C336.207 31.0412 335.634 31.4626 334.904 31.7656C334.18 32.0639 333.344 32.2131 332.397 32.2131C330.953 32.2131 329.803 31.9124 328.946 31.3111C328.093 30.705 327.594 29.8812 327.447 28.8395L330.423 28.6832C330.513 29.1236 330.731 29.4598 331.076 29.6918C331.422 29.919 331.865 30.0327 332.404 30.0327C332.935 30.0327 333.361 29.9309 333.683 29.7273C334.01 29.5189 334.175 29.2514 334.18 28.9247C334.175 28.6501 334.059 28.4252 333.832 28.25C333.605 28.0701 333.254 27.9328 332.781 27.8381L330.892 27.4616C329.826 27.2486 329.033 26.8793 328.512 26.3537C327.996 25.8281 327.738 25.1581 327.738 24.3438C327.738 23.643 327.928 23.0393 328.306 22.5327C328.69 22.026 329.227 21.6354 329.919 21.3608C330.615 21.0862 331.429 20.9489 332.362 20.9489C333.74 20.9489 334.824 21.2401 335.615 21.8224C336.41 22.4048 336.874 23.1979 337.007 24.2017ZM346.9 32.206C346.204 32.206 345.584 32.0852 345.039 31.8438C344.495 31.5975 344.064 31.2353 343.747 30.7571C343.434 30.2741 343.278 29.6728 343.278 28.9531C343.278 28.3471 343.389 27.8381 343.612 27.4261C343.834 27.0142 344.137 26.6828 344.521 26.4318C344.904 26.1809 345.34 25.9915 345.828 25.8636C346.32 25.7358 346.836 25.6458 347.376 25.5938C348.011 25.5275 348.522 25.4659 348.91 25.4091C349.298 25.3475 349.58 25.2576 349.755 25.1392C349.931 25.0208 350.018 24.8456 350.018 24.6136V24.571C350.018 24.1212 349.876 23.7732 349.592 23.527C349.313 23.2808 348.915 23.1577 348.399 23.1577C347.854 23.1577 347.421 23.2784 347.099 23.5199C346.777 23.7566 346.564 24.0549 346.46 24.4148L343.662 24.1875C343.804 23.5246 344.083 22.9517 344.5 22.4688C344.916 21.9811 345.454 21.607 346.112 21.3466C346.775 21.0814 347.542 20.9489 348.413 20.9489C349.019 20.9489 349.599 21.0199 350.153 21.1619C350.712 21.304 351.207 21.5241 351.637 21.8224C352.073 22.1207 352.416 22.5043 352.667 22.973C352.918 23.437 353.044 23.9934 353.044 24.642V32H350.174V30.4872H350.089C349.914 30.8281 349.68 31.1288 349.386 31.3892C349.092 31.6449 348.74 31.8461 348.328 31.9929C347.916 32.1349 347.44 32.206 346.9 32.206ZM347.767 30.1179C348.212 30.1179 348.605 30.0303 348.946 29.8551C349.287 29.6752 349.554 29.4337 349.748 29.1307C349.942 28.8277 350.039 28.4844 350.039 28.1009V26.9432C349.945 27.0047 349.815 27.0616 349.649 27.1136C349.488 27.161 349.306 27.206 349.102 27.2486C348.898 27.2865 348.695 27.322 348.491 27.3551C348.288 27.3835 348.103 27.4096 347.937 27.4332C347.582 27.4853 347.272 27.5682 347.007 27.6818C346.742 27.7955 346.536 27.9493 346.389 28.1435C346.242 28.3329 346.169 28.5696 346.169 28.8537C346.169 29.2656 346.318 29.5805 346.616 29.7983C346.919 30.0114 347.303 30.1179 347.767 30.1179ZM358.417 17.4545V32H355.391V17.4545H358.417ZM365.469 36.0909V21.0909H368.452V22.9233H368.587C368.72 22.6297 368.911 22.3314 369.162 22.0284C369.418 21.7206 369.749 21.465 370.157 21.2614C370.569 21.053 371.08 20.9489 371.691 20.9489C372.486 20.9489 373.22 21.1572 373.892 21.5739C374.565 21.9858 375.102 22.6084 375.505 23.4418C375.907 24.2704 376.108 25.3097 376.108 26.5597C376.108 27.7765 375.912 28.804 375.519 29.642C375.131 30.4754 374.6 31.1075 373.928 31.5384C373.26 31.9645 372.512 32.1776 371.684 32.1776C371.096 32.1776 370.597 32.0805 370.185 31.8864C369.778 31.6922 369.444 31.4484 369.184 31.1548C368.923 30.8565 368.724 30.5559 368.587 30.2528H368.495V36.0909H365.469ZM368.431 26.5455C368.431 27.1941 368.521 27.7599 368.701 28.2429C368.881 28.7259 369.141 29.1023 369.482 29.3722C369.823 29.6373 370.237 29.7699 370.725 29.7699C371.217 29.7699 371.634 29.6349 371.975 29.3651C372.316 29.0904 372.574 28.7116 372.749 28.2287C372.929 27.741 373.019 27.1799 373.019 26.5455C373.019 25.9157 372.931 25.3617 372.756 24.8835C372.581 24.4053 372.323 24.0312 371.982 23.7614C371.641 23.4915 371.222 23.3565 370.725 23.3565C370.232 23.3565 369.816 23.4867 369.475 23.7472C369.139 24.0076 368.881 24.3769 368.701 24.8551C368.521 25.3333 368.431 25.8968 368.431 26.5455ZM381.236 32.206C380.54 32.206 379.92 32.0852 379.375 31.8438C378.831 31.5975 378.4 31.2353 378.083 30.7571C377.77 30.2741 377.614 29.6728 377.614 28.9531C377.614 28.3471 377.725 27.8381 377.948 27.4261C378.17 27.0142 378.473 26.6828 378.857 26.4318C379.24 26.1809 379.676 25.9915 380.164 25.8636C380.656 25.7358 381.172 25.6458 381.712 25.5938C382.346 25.5275 382.858 25.4659 383.246 25.4091C383.634 25.3475 383.916 25.2576 384.091 25.1392C384.266 25.0208 384.354 24.8456 384.354 24.6136V24.571C384.354 24.1212 384.212 23.7732 383.928 23.527C383.649 23.2808 383.251 23.1577 382.735 23.1577C382.19 23.1577 381.757 23.2784 381.435 23.5199C381.113 23.7566 380.9 24.0549 380.796 24.4148L377.998 24.1875C378.14 23.5246 378.419 22.9517 378.836 22.4688C379.252 21.9811 379.79 21.607 380.448 21.3466C381.111 21.0814 381.878 20.9489 382.749 20.9489C383.355 20.9489 383.935 21.0199 384.489 21.1619C385.048 21.304 385.542 21.5241 385.973 21.8224C386.409 22.1207 386.752 22.5043 387.003 22.973C387.254 23.437 387.38 23.9934 387.38 24.642V32H384.51V30.4872H384.425C384.25 30.8281 384.016 31.1288 383.722 31.3892C383.428 31.6449 383.076 31.8461 382.664 31.9929C382.252 32.1349 381.776 32.206 381.236 32.206ZM382.103 30.1179C382.548 30.1179 382.941 30.0303 383.282 29.8551C383.623 29.6752 383.89 29.4337 384.084 29.1307C384.278 28.8277 384.375 28.4844 384.375 28.1009V26.9432C384.281 27.0047 384.15 27.0616 383.985 27.1136C383.824 27.161 383.641 27.206 383.438 27.2486C383.234 27.2865 383.031 27.322 382.827 27.3551C382.623 27.3835 382.439 27.4096 382.273 27.4332C381.918 27.4853 381.608 27.5682 381.343 27.6818C381.078 27.7955 380.872 27.9493 380.725 28.1435C380.578 28.3329 380.505 28.5696 380.505 28.8537C380.505 29.2656 380.654 29.5805 380.952 29.7983C381.255 30.0114 381.639 30.1179 382.103 30.1179ZM389.727 32V21.0909H392.66V22.9943H392.774C392.973 22.3172 393.306 21.8059 393.775 21.4602C394.244 21.1098 394.784 20.9347 395.395 20.9347C395.546 20.9347 395.709 20.9441 395.885 20.9631C396.06 20.982 396.214 21.008 396.346 21.0412V23.7259C396.204 23.6832 396.008 23.6454 395.757 23.6122C395.506 23.5791 395.276 23.5625 395.068 23.5625C394.623 23.5625 394.225 23.6596 393.875 23.8537C393.529 24.0431 393.254 24.3082 393.051 24.6491C392.852 24.9901 392.752 25.383 392.752 25.8281V32H389.727ZM402.332 32.2131C401.228 32.2131 400.274 31.9787 399.469 31.5099C398.669 31.0365 398.051 30.3783 397.616 29.5355C397.18 28.688 396.962 27.7055 396.962 26.5881C396.962 25.4612 397.18 24.4763 397.616 23.6335C398.051 22.786 398.669 22.1278 399.469 21.6591C400.274 21.1856 401.228 20.9489 402.332 20.9489C403.435 20.9489 404.387 21.1856 405.187 21.6591C405.992 22.1278 406.612 22.786 407.048 23.6335C407.483 24.4763 407.701 25.4612 407.701 26.5881C407.701 27.7055 407.483 28.688 407.048 29.5355C406.612 30.3783 405.992 31.0365 405.187 31.5099C404.387 31.9787 403.435 32.2131 402.332 32.2131ZM402.346 29.8693C402.848 29.8693 403.267 29.7273 403.603 29.4432C403.939 29.1544 404.192 28.7614 404.363 28.2642C404.538 27.767 404.626 27.2012 404.626 26.5668C404.626 25.9323 404.538 25.3665 404.363 24.8693C404.192 24.3722 403.939 23.9792 403.603 23.6903C403.267 23.4015 402.848 23.2571 402.346 23.2571C401.839 23.2571 401.413 23.4015 401.067 23.6903C400.727 23.9792 400.469 24.3722 400.293 24.8693C400.123 25.3665 400.038 25.9323 400.038 26.5668C400.038 27.2012 400.123 27.767 400.293 28.2642C400.469 28.7614 400.727 29.1544 401.067 29.4432C401.413 29.7273 401.839 29.8693 402.346 29.8693Z" fill="white"/>
</svg>
