<svg width="600" height="50" viewBox="0 0 600 50" fill="none" xmlns="http://www.w3.org/2000/svg">
<rect width="600" height="50" rx="25" fill="#199635"/>
<path d="M277.93 17.4545V32H275.274L268.946 22.8452H268.839V32H265.764V17.4545H268.463L274.741 26.6023H274.869V17.4545H277.93ZM285.343 32.2131C284.24 32.2131 283.286 31.9787 282.481 31.5099C281.681 31.0365 281.063 30.3783 280.627 29.5355C280.192 28.688 279.974 27.7055 279.974 26.5881C279.974 25.4612 280.192 24.4763 280.627 23.6335C281.063 22.786 281.681 22.1278 282.481 21.6591C283.286 21.1856 284.24 20.9489 285.343 20.9489C286.447 20.9489 287.398 21.1856 288.199 21.6591C289.003 22.1278 289.624 22.786 290.059 23.6335C290.495 24.4763 290.713 25.4612 290.713 26.5881C290.713 27.7055 290.495 28.688 290.059 29.5355C289.624 30.3783 289.003 31.0365 288.199 31.5099C287.398 31.9787 286.447 32.2131 285.343 32.2131ZM285.358 29.8693C285.859 29.8693 286.279 29.7273 286.615 29.4432C286.951 29.1544 287.204 28.7614 287.375 28.2642C287.55 27.767 287.637 27.2012 287.637 26.5668C287.637 25.9323 287.55 25.3665 287.375 24.8693C287.204 24.3722 286.951 23.9792 286.615 23.6903C286.279 23.4015 285.859 23.2571 285.358 23.2571C284.851 23.2571 284.425 23.4015 284.079 23.6903C283.738 23.9792 283.48 24.3722 283.305 24.8693C283.135 25.3665 283.049 25.9323 283.049 26.5668C283.049 27.2012 283.135 27.767 283.305 28.2642C283.48 28.7614 283.738 29.1544 284.079 29.4432C284.425 29.7273 284.851 29.8693 285.358 29.8693ZM292.68 32V21.0909H295.613V22.9943H295.727C295.926 22.3172 296.26 21.8059 296.728 21.4602C297.197 21.1098 297.737 20.9347 298.348 20.9347C298.499 20.9347 298.663 20.9441 298.838 20.9631C299.013 20.982 299.167 21.008 299.299 21.0412V23.7259C299.157 23.6832 298.961 23.6454 298.71 23.6122C298.459 23.5791 298.229 23.5625 298.021 23.5625C297.576 23.5625 297.178 23.6596 296.828 23.8537C296.482 24.0431 296.208 24.3082 296.004 24.6491C295.805 24.9901 295.706 25.383 295.706 25.8281V32H292.68ZM300.864 32V21.0909H303.747V23.0156H303.875C304.102 22.3764 304.481 21.8722 305.011 21.5028C305.542 21.1335 306.176 20.9489 306.915 20.9489C307.663 20.9489 308.3 21.1359 308.825 21.5099C309.351 21.8793 309.701 22.3812 309.876 23.0156H309.99C310.213 22.3906 310.615 21.8911 311.197 21.517C311.785 21.1383 312.478 20.9489 313.278 20.9489C314.296 20.9489 315.123 21.2732 315.757 21.9219C316.396 22.5658 316.716 23.4796 316.716 24.6634V32H313.697V25.2599C313.697 24.6539 313.536 24.1993 313.214 23.8963C312.893 23.5933 312.49 23.4418 312.007 23.4418C311.458 23.4418 311.029 23.617 310.722 23.9673C310.414 24.313 310.26 24.7699 310.26 25.3381V32H307.327V25.196C307.327 24.661 307.173 24.2348 306.865 23.9176C306.562 23.6004 306.162 23.4418 305.665 23.4418C305.329 23.4418 305.026 23.527 304.756 23.6974C304.491 23.8632 304.28 24.0975 304.124 24.4006C303.967 24.6989 303.889 25.0492 303.889 25.4517V32H300.864ZM322.217 32.206C321.521 32.206 320.9 32.0852 320.356 31.8438C319.811 31.5975 319.38 31.2353 319.063 30.7571C318.751 30.2741 318.594 29.6728 318.594 28.9531C318.594 28.3471 318.706 27.8381 318.928 27.4261C319.151 27.0142 319.454 26.6828 319.837 26.4318C320.221 26.1809 320.656 25.9915 321.144 25.8636C321.637 25.7358 322.153 25.6458 322.692 25.5938C323.327 25.5275 323.838 25.4659 324.227 25.4091C324.615 25.3475 324.897 25.2576 325.072 25.1392C325.247 25.0208 325.335 24.8456 325.335 24.6136V24.571C325.335 24.1212 325.192 23.7732 324.908 23.527C324.629 23.2808 324.231 23.1577 323.715 23.1577C323.171 23.1577 322.737 23.2784 322.415 23.5199C322.094 23.7566 321.88 24.0549 321.776 24.4148L318.978 24.1875C319.12 23.5246 319.399 22.9517 319.816 22.4688C320.233 21.9811 320.77 21.607 321.428 21.3466C322.091 21.0814 322.858 20.9489 323.729 20.9489C324.335 20.9489 324.915 21.0199 325.469 21.1619C326.028 21.304 326.523 21.5241 326.954 21.8224C327.389 22.1207 327.733 22.5043 327.984 22.973C328.235 23.437 328.36 23.9934 328.36 24.642V32H325.491V30.4872H325.406C325.23 30.8281 324.996 31.1288 324.702 31.3892C324.409 31.6449 324.056 31.8461 323.644 31.9929C323.232 32.1349 322.756 32.206 322.217 32.206ZM323.083 30.1179C323.528 30.1179 323.921 30.0303 324.262 29.8551C324.603 29.6752 324.871 29.4337 325.065 29.1307C325.259 28.8277 325.356 28.4844 325.356 28.1009V26.9432C325.261 27.0047 325.131 27.0616 324.965 27.1136C324.804 27.161 324.622 27.206 324.418 27.2486C324.215 27.2865 324.011 27.322 323.808 27.3551C323.604 27.3835 323.419 27.4096 323.254 27.4332C322.898 27.4853 322.588 27.5682 322.323 27.6818C322.058 27.7955 321.852 27.9493 321.705 28.1435C321.558 28.3329 321.485 28.5696 321.485 28.8537C321.485 29.2656 321.634 29.5805 321.933 29.7983C322.236 30.0114 322.619 30.1179 323.083 30.1179ZM333.733 17.4545V32H330.707V17.4545H333.733Z" fill="white"/>
</svg>
