<svg width="283" height="40" viewBox="0 0 283 40" fill="none" xmlns="http://www.w3.org/2000/svg">
<rect width="283" height="40" rx="20" fill="#199635"/>
<path d="M119.43 12.4545V27H116.774L110.446 17.8452H110.339V27H107.264V12.4545H109.963L116.241 21.6023H116.369V12.4545H119.43ZM126.843 27.2131C125.74 27.2131 124.786 26.9787 123.981 26.5099C123.181 26.0365 122.563 25.3783 122.127 24.5355C121.692 23.688 121.474 22.7055 121.474 21.5881C121.474 20.4612 121.692 19.4763 122.127 18.6335C122.563 17.786 123.181 17.1278 123.981 16.6591C124.786 16.1856 125.74 15.9489 126.843 15.9489C127.947 15.9489 128.898 16.1856 129.699 16.6591C130.503 17.1278 131.124 17.786 131.559 18.6335C131.995 19.4763 132.213 20.4612 132.213 21.5881C132.213 22.7055 131.995 23.688 131.559 24.5355C131.124 25.3783 130.503 26.0365 129.699 26.5099C128.898 26.9787 127.947 27.2131 126.843 27.2131ZM126.858 24.8693C127.359 24.8693 127.779 24.7273 128.115 24.4432C128.451 24.1544 128.704 23.7614 128.875 23.2642C129.05 22.767 129.137 22.2012 129.137 21.5668C129.137 20.9323 129.05 20.3665 128.875 19.8693C128.704 19.3722 128.451 18.9792 128.115 18.6903C127.779 18.4015 127.359 18.2571 126.858 18.2571C126.351 18.2571 125.925 18.4015 125.579 18.6903C125.238 18.9792 124.98 19.3722 124.805 19.8693C124.635 20.3665 124.549 20.9323 124.549 21.5668C124.549 22.2012 124.635 22.767 124.805 23.2642C124.98 23.7614 125.238 24.1544 125.579 24.4432C125.925 24.7273 126.351 24.8693 126.858 24.8693ZM134.18 27V16.0909H137.113V17.9943H137.227C137.426 17.3172 137.76 16.8059 138.228 16.4602C138.697 16.1098 139.237 15.9347 139.848 15.9347C139.999 15.9347 140.163 15.9441 140.338 15.9631C140.513 15.982 140.667 16.008 140.799 16.0412V18.7259C140.657 18.6832 140.461 18.6454 140.21 18.6122C139.959 18.5791 139.729 18.5625 139.521 18.5625C139.076 18.5625 138.678 18.6596 138.328 18.8537C137.982 19.0431 137.708 19.3082 137.504 19.6491C137.305 19.9901 137.206 20.383 137.206 20.8281V27H134.18ZM142.364 27V16.0909H145.247V18.0156H145.375C145.602 17.3764 145.981 16.8722 146.511 16.5028C147.042 16.1335 147.676 15.9489 148.415 15.9489C149.163 15.9489 149.8 16.1359 150.325 16.5099C150.851 16.8793 151.201 17.3812 151.376 18.0156H151.49C151.713 17.3906 152.115 16.8911 152.697 16.517C153.285 16.1383 153.978 15.9489 154.778 15.9489C155.796 15.9489 156.623 16.2732 157.257 16.9219C157.896 17.5658 158.216 18.4796 158.216 19.6634V27H155.197V20.2599C155.197 19.6539 155.036 19.1993 154.714 18.8963C154.393 18.5933 153.99 18.4418 153.507 18.4418C152.958 18.4418 152.529 18.617 152.222 18.9673C151.914 19.313 151.76 19.7699 151.76 20.3381V27H148.827V20.196C148.827 19.661 148.673 19.2348 148.365 18.9176C148.062 18.6004 147.662 18.4418 147.165 18.4418C146.829 18.4418 146.526 18.527 146.256 18.6974C145.991 18.8632 145.78 19.0975 145.624 19.4006C145.467 19.6989 145.389 20.0492 145.389 20.4517V27H142.364ZM163.717 27.206C163.021 27.206 162.4 27.0852 161.856 26.8438C161.311 26.5975 160.88 26.2353 160.563 25.7571C160.251 25.2741 160.094 24.6728 160.094 23.9531C160.094 23.3471 160.206 22.8381 160.428 22.4261C160.651 22.0142 160.954 21.6828 161.337 21.4318C161.721 21.1809 162.156 20.9915 162.644 20.8636C163.137 20.7358 163.653 20.6458 164.192 20.5938C164.827 20.5275 165.338 20.4659 165.727 20.4091C166.115 20.3475 166.397 20.2576 166.572 20.1392C166.747 20.0208 166.835 19.8456 166.835 19.6136V19.571C166.835 19.1212 166.692 18.7732 166.408 18.527C166.129 18.2808 165.731 18.1577 165.215 18.1577C164.671 18.1577 164.237 18.2784 163.915 18.5199C163.594 18.7566 163.38 19.0549 163.276 19.4148L160.478 19.1875C160.62 18.5246 160.899 17.9517 161.316 17.4688C161.733 16.9811 162.27 16.607 162.928 16.3466C163.591 16.0814 164.358 15.9489 165.229 15.9489C165.835 15.9489 166.415 16.0199 166.969 16.1619C167.528 16.304 168.023 16.5241 168.454 16.8224C168.889 17.1207 169.233 17.5043 169.484 17.973C169.735 18.437 169.86 18.9934 169.86 19.642V27H166.991V25.4872H166.906C166.73 25.8281 166.496 26.1288 166.202 26.3892C165.909 26.6449 165.556 26.8461 165.144 26.9929C164.732 27.1349 164.256 27.206 163.717 27.206ZM164.583 25.1179C165.028 25.1179 165.421 25.0303 165.762 24.8551C166.103 24.6752 166.371 24.4337 166.565 24.1307C166.759 23.8277 166.856 23.4844 166.856 23.1009V21.9432C166.761 22.0047 166.631 22.0616 166.465 22.1136C166.304 22.161 166.122 22.206 165.918 22.2486C165.715 22.2865 165.511 22.322 165.308 22.3551C165.104 22.3835 164.919 22.4096 164.754 22.4332C164.398 22.4853 164.088 22.5682 163.823 22.6818C163.558 22.7955 163.352 22.9493 163.205 23.1435C163.058 23.3329 162.985 23.5696 162.985 23.8537C162.985 24.2656 163.134 24.5805 163.433 24.7983C163.736 25.0114 164.119 25.1179 164.583 25.1179ZM175.233 12.4545V27H172.207V12.4545H175.233Z" fill="white"/>
</svg>
