<svg width="600" height="50" viewBox="0 0 600 50" fill="none" xmlns="http://www.w3.org/2000/svg">
<rect width="600" height="50" rx="25" fill="#FFCD29"/>
<path d="M203.155 21.6378C203.098 21.0649 202.854 20.6198 202.423 20.3026C201.992 19.9853 201.408 19.8267 200.669 19.8267C200.167 19.8267 199.743 19.8977 199.398 20.0398C199.052 20.1771 198.787 20.3688 198.602 20.6151C198.422 20.8613 198.332 21.1406 198.332 21.4531C198.323 21.7135 198.377 21.9408 198.496 22.1349C198.619 22.3291 198.787 22.4972 199 22.6392C199.213 22.7765 199.459 22.8973 199.739 23.0014C200.018 23.1009 200.316 23.1861 200.634 23.2571L201.94 23.5696C202.575 23.7116 203.157 23.901 203.688 24.1378C204.218 24.3745 204.677 24.6657 205.065 25.0114C205.454 25.357 205.754 25.7642 205.967 26.233C206.185 26.7017 206.296 27.2391 206.301 27.8452C206.296 28.7353 206.069 29.5071 205.619 30.1605C205.174 30.8092 204.53 31.3134 203.688 31.6733C202.849 32.0284 201.839 32.206 200.655 32.206C199.481 32.206 198.458 32.026 197.587 31.6662C196.72 31.3063 196.043 30.7737 195.555 30.0682C195.072 29.358 194.819 28.4796 194.795 27.4332H197.771C197.804 27.9209 197.944 28.3281 198.19 28.6548C198.441 28.9768 198.775 29.2206 199.192 29.3864C199.613 29.5473 200.089 29.6278 200.619 29.6278C201.14 29.6278 201.592 29.5521 201.976 29.4006C202.364 29.2491 202.665 29.0384 202.878 28.7685C203.091 28.4986 203.197 28.1884 203.197 27.8381C203.197 27.5114 203.1 27.2367 202.906 27.0142C202.717 26.7917 202.438 26.6023 202.068 26.446C201.704 26.2898 201.256 26.1477 200.726 26.0199L199.142 25.6222C197.916 25.3239 196.947 24.8575 196.237 24.223C195.527 23.5885 195.174 22.7339 195.179 21.6591C195.174 20.7784 195.409 20.009 195.882 19.3509C196.36 18.6927 197.016 18.179 197.849 17.8097C198.683 17.4403 199.63 17.2557 200.69 17.2557C201.77 17.2557 202.712 17.4403 203.517 17.8097C204.327 18.179 204.956 18.6927 205.406 19.3509C205.856 20.009 206.088 20.7713 206.102 21.6378H203.155ZM213.284 32.2131C212.162 32.2131 211.196 31.9858 210.387 31.5312C209.582 31.072 208.962 30.4233 208.526 29.5852C208.09 28.7424 207.873 27.7457 207.873 26.5952C207.873 25.473 208.09 24.4882 208.526 23.6406C208.962 22.7931 209.575 22.1326 210.365 21.6591C211.161 21.1856 212.094 20.9489 213.164 20.9489C213.883 20.9489 214.553 21.0649 215.174 21.2969C215.799 21.5241 216.343 21.8674 216.807 22.3267C217.276 22.786 217.641 23.3636 217.901 24.0597C218.161 24.7509 218.292 25.5606 218.292 26.4886V27.3196H209.08V25.4446H215.444C215.444 25.009 215.349 24.6231 215.159 24.2869C214.97 23.9508 214.707 23.688 214.371 23.4986C214.04 23.3045 213.654 23.2074 213.213 23.2074C212.754 23.2074 212.347 23.3139 211.992 23.527C211.641 23.7353 211.367 24.017 211.168 24.3722C210.969 24.7225 210.867 25.1132 210.863 25.544V27.3267C210.863 27.8665 210.962 28.3329 211.161 28.7259C211.364 29.1188 211.651 29.4219 212.02 29.6349C212.39 29.848 212.828 29.9545 213.334 29.9545C213.67 29.9545 213.978 29.9072 214.257 29.8125C214.537 29.7178 214.776 29.5758 214.975 29.3864C215.174 29.197 215.325 28.965 215.429 28.6903L218.228 28.875C218.086 29.5473 217.794 30.1345 217.354 30.6364C216.918 31.1335 216.355 31.5218 215.664 31.8011C214.977 32.0758 214.184 32.2131 213.284 32.2131ZM220.266 32V21.0909H223.199V22.9943H223.313C223.512 22.3172 223.846 21.8059 224.314 21.4602C224.783 21.1098 225.323 20.9347 225.934 20.9347C226.085 20.9347 226.248 20.9441 226.424 20.9631C226.599 20.982 226.753 21.008 226.885 21.0412V23.7259C226.743 23.6832 226.547 23.6454 226.296 23.6122C226.045 23.5791 225.815 23.5625 225.607 23.5625C225.162 23.5625 224.764 23.6596 224.414 23.8537C224.068 24.0431 223.793 24.3082 223.59 24.6491C223.391 24.9901 223.292 25.383 223.292 25.8281V32H220.266ZM238.952 21.0909L235.138 32H231.729L227.915 21.0909H231.111L233.377 28.8963H233.49L235.749 21.0909H238.952ZM240.5 32V21.0909H243.526V32H240.5ZM242.02 19.6847C241.57 19.6847 241.185 19.5355 240.863 19.2372C240.545 18.9342 240.387 18.572 240.387 18.1506C240.387 17.7339 240.545 17.3764 240.863 17.0781C241.185 16.7751 241.57 16.6236 242.02 16.6236C242.47 16.6236 242.854 16.7751 243.171 17.0781C243.493 17.3764 243.654 17.7339 243.654 18.1506C243.654 18.572 243.493 18.9342 243.171 19.2372C242.854 19.5355 242.47 19.6847 242.02 19.6847ZM250.879 32.2131C249.761 32.2131 248.8 31.9763 247.995 31.5028C247.195 31.0246 246.579 30.3617 246.148 29.5142C245.722 28.6667 245.509 27.6913 245.509 26.5881C245.509 25.4706 245.725 24.4905 246.156 23.6477C246.591 22.8002 247.209 22.1397 248.009 21.6662C248.809 21.188 249.761 20.9489 250.864 20.9489C251.816 20.9489 252.649 21.1217 253.364 21.4673C254.079 21.813 254.645 22.2983 255.062 22.9233C255.478 23.5483 255.708 24.2822 255.751 25.125H252.896C252.815 24.5805 252.602 24.1425 252.256 23.8111C251.915 23.4749 251.468 23.3068 250.914 23.3068C250.445 23.3068 250.036 23.4347 249.685 23.6903C249.34 23.9413 249.07 24.3082 248.876 24.7912C248.682 25.2741 248.585 25.8589 248.585 26.5455C248.585 27.2415 248.679 27.8333 248.869 28.321C249.063 28.8087 249.335 29.1804 249.685 29.4361C250.036 29.6918 250.445 29.8196 250.914 29.8196C251.26 29.8196 251.57 29.7486 251.844 29.6065C252.124 29.4645 252.353 29.2585 252.533 28.9886C252.718 28.714 252.839 28.3849 252.896 28.0014H255.751C255.703 28.8348 255.476 29.5687 255.069 30.2031C254.666 30.8329 254.11 31.3253 253.4 31.6804C252.69 32.0355 251.849 32.2131 250.879 32.2131ZM257.688 32V21.0909H260.713V32H257.688ZM259.208 19.6847C258.758 19.6847 258.372 19.5355 258.05 19.2372C257.733 18.9342 257.574 18.572 257.574 18.1506C257.574 17.7339 257.733 17.3764 258.05 17.0781C258.372 16.7751 258.758 16.6236 259.208 16.6236C259.658 16.6236 260.041 16.7751 260.358 17.0781C260.68 17.3764 260.841 17.7339 260.841 18.1506C260.841 18.572 260.68 18.9342 260.358 19.2372C260.041 19.5355 259.658 19.6847 259.208 19.6847ZM268.066 32.2131C266.963 32.2131 266.009 31.9787 265.204 31.5099C264.404 31.0365 263.786 30.3783 263.35 29.5355C262.915 28.688 262.697 27.7055 262.697 26.5881C262.697 25.4612 262.915 24.4763 263.35 23.6335C263.786 22.786 264.404 22.1278 265.204 21.6591C266.009 21.1856 266.963 20.9489 268.066 20.9489C269.169 20.9489 270.121 21.1856 270.921 21.6591C271.726 22.1278 272.346 22.786 272.782 23.6335C273.218 24.4763 273.435 25.4612 273.435 26.5881C273.435 27.7055 273.218 28.688 272.782 29.5355C272.346 30.3783 271.726 31.0365 270.921 31.5099C270.121 31.9787 269.169 32.2131 268.066 32.2131ZM268.08 29.8693C268.582 29.8693 269.001 29.7273 269.337 29.4432C269.674 29.1544 269.927 28.7614 270.097 28.2642C270.272 27.767 270.36 27.2012 270.36 26.5668C270.36 25.9323 270.272 25.3665 270.097 24.8693C269.927 24.3722 269.674 23.9792 269.337 23.6903C269.001 23.4015 268.582 23.2571 268.08 23.2571C267.574 23.2571 267.147 23.4015 266.802 23.6903C266.461 23.9792 266.203 24.3722 266.028 24.8693C265.857 25.3665 265.772 25.9323 265.772 26.5668C265.772 27.2012 265.857 27.767 266.028 28.2642C266.203 28.7614 266.461 29.1544 266.802 29.4432C267.147 29.7273 267.574 29.8693 268.08 29.8693ZM284.961 32.2131C283.843 32.2131 282.882 31.9763 282.077 31.5028C281.277 31.0246 280.661 30.3617 280.23 29.5142C279.804 28.6667 279.591 27.6913 279.591 26.5881C279.591 25.4706 279.807 24.4905 280.238 23.6477C280.673 22.8002 281.291 22.1397 282.091 21.6662C282.891 21.188 283.843 20.9489 284.946 20.9489C285.898 20.9489 286.731 21.1217 287.446 21.4673C288.161 21.813 288.727 22.2983 289.144 22.9233C289.56 23.5483 289.79 24.2822 289.833 25.125H286.978C286.897 24.5805 286.684 24.1425 286.338 23.8111C285.998 23.4749 285.55 23.3068 284.996 23.3068C284.527 23.3068 284.118 23.4347 283.767 23.6903C283.422 23.9413 283.152 24.3082 282.958 24.7912C282.764 25.2741 282.667 25.8589 282.667 26.5455C282.667 27.2415 282.761 27.8333 282.951 28.321C283.145 28.8087 283.417 29.1804 283.767 29.4361C284.118 29.6918 284.527 29.8196 284.996 29.8196C285.342 29.8196 285.652 29.7486 285.926 29.6065C286.206 29.4645 286.435 29.2585 286.615 28.9886C286.8 28.714 286.921 28.3849 286.978 28.0014H289.833C289.785 28.8348 289.558 29.5687 289.151 30.2031C288.748 30.8329 288.192 31.3253 287.482 31.6804C286.772 32.0355 285.931 32.2131 284.961 32.2131ZM296.699 32.2131C295.596 32.2131 294.642 31.9787 293.837 31.5099C293.036 31.0365 292.419 30.3783 291.983 29.5355C291.547 28.688 291.33 27.7055 291.33 26.5881C291.33 25.4612 291.547 24.4763 291.983 23.6335C292.419 22.786 293.036 22.1278 293.837 21.6591C294.642 21.1856 295.596 20.9489 296.699 20.9489C297.802 20.9489 298.754 21.1856 299.554 21.6591C300.359 22.1278 300.979 22.786 301.415 23.6335C301.85 24.4763 302.068 25.4612 302.068 26.5881C302.068 27.7055 301.85 28.688 301.415 29.5355C300.979 30.3783 300.359 31.0365 299.554 31.5099C298.754 31.9787 297.802 32.2131 296.699 32.2131ZM296.713 29.8693C297.215 29.8693 297.634 29.7273 297.97 29.4432C298.306 29.1544 298.56 28.7614 298.73 28.2642C298.905 27.767 298.993 27.2012 298.993 26.5668C298.993 25.9323 298.905 25.3665 298.73 24.8693C298.56 24.3722 298.306 23.9792 297.97 23.6903C297.634 23.4015 297.215 23.2571 296.713 23.2571C296.206 23.2571 295.78 23.4015 295.435 23.6903C295.094 23.9792 294.836 24.3722 294.661 24.8693C294.49 25.3665 294.405 25.9323 294.405 26.5668C294.405 27.2012 294.49 27.767 294.661 28.2642C294.836 28.7614 295.094 29.1544 295.435 29.4432C295.78 29.7273 296.206 29.8693 296.713 29.8693ZM307.061 25.6932V32H304.036V21.0909H306.919V23.0156H307.047C307.288 22.3812 307.693 21.8793 308.261 21.5099C308.83 21.1359 309.518 20.9489 310.328 20.9489C311.086 20.9489 311.746 21.1146 312.31 21.446C312.873 21.7775 313.311 22.2509 313.624 22.8665C313.936 23.4773 314.092 24.2064 314.092 25.054V32H311.067V25.5938C311.071 24.9261 310.901 24.4053 310.555 24.0312C310.21 23.6525 309.734 23.4631 309.128 23.4631C308.721 23.4631 308.361 23.5507 308.048 23.7259C307.741 23.901 307.499 24.1567 307.324 24.4929C307.153 24.8243 307.066 25.2244 307.061 25.6932ZM325.126 32.1776C324.297 32.1776 323.547 31.9645 322.874 31.5384C322.207 31.1075 321.676 30.4754 321.283 29.642C320.895 28.804 320.701 27.7765 320.701 26.5597C320.701 25.3097 320.902 24.2704 321.305 23.4418C321.707 22.6084 322.242 21.9858 322.91 21.5739C323.582 21.1572 324.318 20.9489 325.119 20.9489C325.729 20.9489 326.238 21.053 326.646 21.2614C327.058 21.465 327.389 21.7206 327.64 22.0284C327.896 22.3314 328.09 22.6297 328.222 22.9233H328.315V17.4545H331.333V32H328.35V30.2528H328.222C328.08 30.5559 327.879 30.8565 327.619 31.1548C327.363 31.4484 327.029 31.6922 326.617 31.8864C326.21 32.0805 325.713 32.1776 325.126 32.1776ZM326.085 29.7699C326.572 29.7699 326.984 29.6373 327.32 29.3722C327.661 29.1023 327.922 28.7259 328.102 28.2429C328.286 27.7599 328.379 27.1941 328.379 26.5455C328.379 25.8968 328.289 25.3333 328.109 24.8551C327.929 24.3769 327.668 24.0076 327.327 23.7472C326.987 23.4867 326.572 23.3565 326.085 23.3565C325.587 23.3565 325.168 23.4915 324.827 23.7614C324.487 24.0312 324.228 24.4053 324.053 24.8835C323.878 25.3617 323.79 25.9157 323.79 26.5455C323.79 27.1799 323.878 27.741 324.053 28.2287C324.233 28.7116 324.491 29.0904 324.827 29.3651C325.168 29.6349 325.587 29.7699 326.085 29.7699ZM338.792 32.2131C337.67 32.2131 336.704 31.9858 335.895 31.5312C335.09 31.072 334.469 30.4233 334.034 29.5852C333.598 28.7424 333.38 27.7457 333.38 26.5952C333.38 25.473 333.598 24.4882 334.034 23.6406C334.469 22.7931 335.083 22.1326 335.873 21.6591C336.669 21.1856 337.601 20.9489 338.672 20.9489C339.391 20.9489 340.061 21.0649 340.681 21.2969C341.306 21.5241 341.851 21.8674 342.315 22.3267C342.784 22.786 343.148 23.3636 343.409 24.0597C343.669 24.7509 343.799 25.5606 343.799 26.4886V27.3196H334.588V25.4446H340.951C340.951 25.009 340.857 24.6231 340.667 24.2869C340.478 23.9508 340.215 23.688 339.879 23.4986C339.547 23.3045 339.162 23.2074 338.721 23.2074C338.262 23.2074 337.855 23.3139 337.5 23.527C337.149 23.7353 336.875 24.017 336.676 24.3722C336.477 24.7225 336.375 25.1132 336.37 25.544V27.3267C336.37 27.8665 336.47 28.3329 336.669 28.7259C336.872 29.1188 337.159 29.4219 337.528 29.6349C337.897 29.848 338.335 29.9545 338.842 29.9545C339.178 29.9545 339.486 29.9072 339.765 29.8125C340.045 29.7178 340.284 29.5758 340.483 29.3864C340.681 29.197 340.833 28.965 340.937 28.6903L343.735 28.875C343.593 29.5473 343.302 30.1345 342.862 30.6364C342.426 31.1335 341.863 31.5218 341.172 31.8011C340.485 32.0758 339.692 32.2131 338.792 32.2131ZM345.774 32V21.0909H348.657V23.0156H348.785C349.012 22.3764 349.391 21.8722 349.922 21.5028C350.452 21.1335 351.086 20.9489 351.825 20.9489C352.573 20.9489 353.21 21.1359 353.735 21.5099C354.261 21.8793 354.611 22.3812 354.787 23.0156H354.9C355.123 22.3906 355.525 21.8911 356.108 21.517C356.695 21.1383 357.388 20.9489 358.189 20.9489C359.207 20.9489 360.033 21.2732 360.667 21.9219C361.306 22.5658 361.626 23.4796 361.626 24.6634V32H358.608V25.2599C358.608 24.6539 358.447 24.1993 358.125 23.8963C357.803 23.5933 357.4 23.4418 356.917 23.4418C356.368 23.4418 355.94 23.617 355.632 23.9673C355.324 24.313 355.17 24.7699 355.17 25.3381V32H352.237V25.196C352.237 24.661 352.083 24.2348 351.775 23.9176C351.472 23.6004 351.072 23.4418 350.575 23.4418C350.239 23.4418 349.936 23.527 349.666 23.6974C349.401 23.8632 349.19 24.0975 349.034 24.4006C348.877 24.6989 348.799 25.0492 348.799 25.4517V32H345.774ZM368.945 32.2131C367.842 32.2131 366.888 31.9787 366.083 31.5099C365.283 31.0365 364.665 30.3783 364.229 29.5355C363.793 28.688 363.576 27.7055 363.576 26.5881C363.576 25.4612 363.793 24.4763 364.229 23.6335C364.665 22.786 365.283 22.1278 366.083 21.6591C366.888 21.1856 367.842 20.9489 368.945 20.9489C370.048 20.9489 371 21.1856 371.8 21.6591C372.605 22.1278 373.225 22.786 373.661 23.6335C374.096 24.4763 374.314 25.4612 374.314 26.5881C374.314 27.7055 374.096 28.688 373.661 29.5355C373.225 30.3783 372.605 31.0365 371.8 31.5099C371 31.9787 370.048 32.2131 368.945 32.2131ZM368.959 29.8693C369.461 29.8693 369.88 29.7273 370.216 29.4432C370.552 29.1544 370.806 28.7614 370.976 28.2642C371.151 27.767 371.239 27.2012 371.239 26.5668C371.239 25.9323 371.151 25.3665 370.976 24.8693C370.806 24.3722 370.552 23.9792 370.216 23.6903C369.88 23.4015 369.461 23.2571 368.959 23.2571C368.453 23.2571 368.026 23.4015 367.681 23.6903C367.34 23.9792 367.082 24.3722 366.907 24.8693C366.736 25.3665 366.651 25.9323 366.651 26.5668C366.651 27.2012 366.736 27.767 366.907 28.2642C367.082 28.7614 367.34 29.1544 367.681 29.4432C368.026 29.7273 368.453 29.8693 368.959 29.8693ZM376.282 32V21.0909H379.215V22.9943H379.328C379.527 22.3172 379.861 21.8059 380.33 21.4602C380.799 21.1098 381.338 20.9347 381.949 20.9347C382.101 20.9347 382.264 20.9441 382.439 20.9631C382.614 20.982 382.768 21.008 382.901 21.0412V23.7259C382.759 23.6832 382.562 23.6454 382.311 23.6122C382.06 23.5791 381.831 23.5625 381.623 23.5625C381.177 23.5625 380.78 23.6596 380.429 23.8537C380.084 24.0431 379.809 24.3082 379.605 24.6491C379.407 24.9901 379.307 25.383 379.307 25.8281V32H376.282ZM387.263 32.206C386.567 32.206 385.947 32.0852 385.403 31.8438C384.858 31.5975 384.427 31.2353 384.11 30.7571C383.798 30.2741 383.641 29.6728 383.641 28.9531C383.641 28.3471 383.753 27.8381 383.975 27.4261C384.198 27.0142 384.501 26.6828 384.884 26.4318C385.268 26.1809 385.703 25.9915 386.191 25.8636C386.683 25.7358 387.2 25.6458 387.739 25.5938C388.374 25.5275 388.885 25.4659 389.273 25.4091C389.662 25.3475 389.943 25.2576 390.119 25.1392C390.294 25.0208 390.381 24.8456 390.381 24.6136V24.571C390.381 24.1212 390.239 23.7732 389.955 23.527C389.676 23.2808 389.278 23.1577 388.762 23.1577C388.218 23.1577 387.784 23.2784 387.462 23.5199C387.14 23.7566 386.927 24.0549 386.823 24.4148L384.025 24.1875C384.167 23.5246 384.446 22.9517 384.863 22.4688C385.28 21.9811 385.817 21.607 386.475 21.3466C387.138 21.0814 387.905 20.9489 388.776 20.9489C389.382 20.9489 389.962 21.0199 390.516 21.1619C391.075 21.304 391.57 21.5241 392.001 21.8224C392.436 22.1207 392.78 22.5043 393.031 22.973C393.281 23.437 393.407 23.9934 393.407 24.642V32H390.538V30.4872H390.452C390.277 30.8281 390.043 31.1288 389.749 31.3892C389.456 31.6449 389.103 31.8461 388.691 31.9929C388.279 32.1349 387.803 32.206 387.263 32.206ZM388.13 30.1179C388.575 30.1179 388.968 30.0303 389.309 29.8551C389.65 29.6752 389.917 29.4337 390.112 29.1307C390.306 28.8277 390.403 28.4844 390.403 28.1009V26.9432C390.308 27.0047 390.178 27.0616 390.012 27.1136C389.851 27.161 389.669 27.206 389.465 27.2486C389.262 27.2865 389.058 27.322 388.854 27.3551C388.651 27.3835 388.466 27.4096 388.3 27.4332C387.945 27.4853 387.635 27.5682 387.37 27.6818C387.105 27.7955 386.899 27.9493 386.752 28.1435C386.605 28.3329 386.532 28.5696 386.532 28.8537C386.532 29.2656 386.681 29.5805 386.979 29.7983C387.282 30.0114 387.666 30.1179 388.13 30.1179ZM404.831 24.2017L402.061 24.3722C402.014 24.1354 401.912 23.9223 401.756 23.733C401.599 23.5388 401.393 23.3849 401.138 23.2713C400.887 23.1529 400.586 23.0938 400.236 23.0938C399.767 23.0938 399.372 23.1932 399.05 23.392C398.728 23.5862 398.567 23.8466 398.567 24.1733C398.567 24.4337 398.671 24.6539 398.879 24.8338C399.088 25.0137 399.445 25.1581 399.952 25.267L401.926 25.6648C402.987 25.8826 403.777 26.233 404.298 26.7159C404.819 27.1989 405.08 27.8333 405.08 28.6193C405.08 29.3343 404.869 29.9616 404.447 30.5014C404.031 31.0412 403.458 31.4626 402.729 31.7656C402.004 32.0639 401.169 32.2131 400.222 32.2131C398.777 32.2131 397.627 31.9124 396.77 31.3111C395.918 30.705 395.418 29.8812 395.271 28.8395L398.247 28.6832C398.337 29.1236 398.555 29.4598 398.901 29.6918C399.246 29.919 399.689 30.0327 400.229 30.0327C400.759 30.0327 401.185 29.9309 401.507 29.7273C401.834 29.5189 402 29.2514 402.004 28.9247C402 28.6501 401.884 28.4252 401.656 28.25C401.429 28.0701 401.079 27.9328 400.605 27.8381L398.716 27.4616C397.651 27.2486 396.857 26.8793 396.337 26.3537C395.821 25.8281 395.562 25.1581 395.562 24.3438C395.562 23.643 395.752 23.0393 396.131 22.5327C396.514 22.026 397.052 21.6354 397.743 21.3608C398.439 21.0862 399.253 20.9489 400.186 20.9489C401.564 20.9489 402.648 21.2401 403.439 21.8224C404.234 22.4048 404.698 23.1979 404.831 24.2017Z" fill="#1E1E1E"/>
</svg>
