<?xml version="1.0" encoding="utf-8"?>
<!-- Generator: Adobe Illustrator 27.1.1, SVG Export Plug-In . SVG Version: 6.00 Build 0)  -->
<svg version="1.1" id="Capa_1" xmlns="http://www.w3.org/2000/svg" xmlns:xlink="http://www.w3.org/1999/xlink" x="0px" y="0px"
	 viewBox="0 0 170 97.13" style="enable-background:new 0 0 170 97.13;" xml:space="preserve">
<style type="text/css">
	.st0{fill:#DB0D17;}
	.st1{fill:#C7C5C1;}
	.st2{fill:#2072B9;}
</style>
<path class="st0" d="M0,2.24V20.9v74.58h28.02h18.6h27.95V20.9V2.24H0z"/>
<path class="st1" d="M111.85,95.48H37.29V39.55c0-5.16,0.97-10,2.92-14.53c1.95-4.53,4.61-8.49,7.97-11.86
	c3.36-3.38,7.3-6.05,11.83-8c4.53-1.95,9.37-2.92,14.53-2.92c5.16,0,10,0.97,14.53,2.92c4.53,1.95,8.49,4.62,11.86,8
	c3.38,3.38,6.05,7.34,8,11.86c1.95,4.53,2.92,9.37,2.92,14.53V95.48L111.85,95.48z"/>
<path class="st2" d="M168.28,36.04c-1.15-4.09-2.77-7.94-4.88-11.51s-4.62-6.84-7.57-9.79s-6.21-5.47-9.78-7.57
	c-3.57-2.1-7.41-3.73-11.51-4.88c-2.76-0.77-5.6-1.26-8.5-1.52c-0.08,0-0.17-0.02-0.25-0.02c-0.51-0.04-1.03-0.07-1.54-0.1
	c-0.69-0.04-1.38-0.06-2.07-0.07c-0.13,0-0.27-0.02-0.41-0.02c-0.04,0-0.07,0-0.11,0c-0.04,0-0.07,0-0.11,0
	c-0.14,0-0.28,0.02-0.42,0.02c-0.68,0.01-1.35,0.03-2.02,0.06c-3.55,0.17-6.99,0.71-10.33,1.64c-4.09,1.15-7.93,2.77-11.51,4.88
	c-3.57,2.1-6.84,4.62-9.78,7.57s-5.47,6.21-7.57,9.79c-2.1,3.57-3.73,7.42-4.88,11.54c-1.15,4.12-1.72,8.39-1.72,12.81
	c0,4.43,0.58,8.68,1.72,12.77c1.15,4.09,2.77,7.94,4.88,11.51c2.1,3.57,4.62,6.84,7.57,9.79c2.95,2.95,6.21,5.47,9.78,7.57
	c3.57,2.1,7.41,3.73,11.51,4.88c2.76,0.77,5.6,1.26,8.5,1.52c0.08,0,0.17,0.02,0.25,0.02c0.51,0.04,1.03,0.07,1.54,0.1
	c0.69,0.04,1.38,0.06,2.07,0.07c0.14,0,0.27,0.02,0.41,0.02c0.04,0,0.07,0,0.11,0c0.04,0,0.07,0,0.11,0c0.14,0,0.28-0.02,0.42-0.02
	c0.68-0.01,1.35-0.03,2.02-0.06c3.55-0.17,7-0.71,10.33-1.64c4.09-1.15,7.93-2.77,11.51-4.88c3.57-2.1,6.84-4.62,9.78-7.57
	c2.95-2.95,5.47-6.21,7.57-9.79c2.1-3.57,3.73-7.42,4.88-11.54c1.15-4.12,1.72-8.39,1.72-12.81S169.42,40.14,168.28,36.04z"/>
</svg>
