<?xml version="1.0" encoding="utf-8"?>
<!-- Generator: Adobe Illustrator 27.1.0, SVG Export Plug-In . SVG Version: 6.00 Build 0)  -->
<svg version="1.1" id="Capa_1" xmlns="http://www.w3.org/2000/svg" xmlns:xlink="http://www.w3.org/1999/xlink" x="0px" y="0px"
	 viewBox="0 0 21 20" style="enable-background:new 0 0 21 20;" xml:space="preserve">
<style type="text/css">
	.st0{fill:#FFFFFF;}
</style>
<path class="st0" d="M6.3,0h8.4c3.2,0,5.8,2.6,5.8,5.8v8.4c0,1.5-0.6,3-1.7,4.1c-1.1,1.1-2.6,1.7-4.1,1.7H6.3
	c-3.2,0-5.8-2.6-5.8-5.8V5.8c0-1.5,0.6-3,1.7-4.1S4.8,0,6.3,0z M6.1,2c-1,0-1.9,0.4-2.5,1.1C2.9,3.7,2.5,4.6,2.5,5.6v8.8
	c0,2,1.6,3.6,3.6,3.6h8.8c1,0,1.9-0.4,2.5-1.1s1.1-1.6,1.1-2.5V5.6c0-2-1.6-3.6-3.6-3.6H6.1z M15.8,3.5c0.3,0,0.6,0.1,0.9,0.4
	C16.9,4.1,17,4.4,17,4.8c0,0.3-0.1,0.6-0.4,0.9C16.4,5.9,16.1,6,15.8,6c-0.3,0-0.6-0.1-0.9-0.4c-0.2-0.2-0.4-0.6-0.4-0.9
	c0-0.3,0.1-0.6,0.4-0.9C15.1,3.6,15.4,3.5,15.8,3.5z M10.5,5c1.3,0,2.6,0.5,3.5,1.5c0.9,0.9,1.5,2.2,1.5,3.5c0,1.3-0.5,2.6-1.5,3.5
	c-0.9,0.9-2.2,1.5-3.5,1.5c-1.3,0-2.6-0.5-3.5-1.5C6,12.6,5.5,11.3,5.5,10C5.5,8.7,6,7.4,7,6.5C7.9,5.5,9.2,5,10.5,5z M10.5,7
	C9.7,7,8.9,7.3,8.4,7.9C7.8,8.4,7.5,9.2,7.5,10c0,0.8,0.3,1.6,0.9,2.1S9.7,13,10.5,13c0.8,0,1.6-0.3,2.1-0.9s0.9-1.3,0.9-2.1
	c0-0.8-0.3-1.6-0.9-2.1C12.1,7.3,11.3,7,10.5,7z"/>
</svg>
