<svg width="264" height="192" viewBox="0 0 264 192" fill="none" xmlns="http://www.w3.org/2000/svg">
<path d="M92.2672 46H69V12.0679H75.6511V39.2088H92.2672V46Z" fill="white"/>
<path d="M102.395 46H95.7434V12.0679H102.395V46ZM99.0806 10.0802L96.4618 6.55453L103.345 0L107.145 4.94547L99.0806 10.0802Z" fill="white"/>
<path d="M135.163 46H128.049L115.233 23.6626V46H108.582V12.0679H115.697L128.512 34.429V12.0679H135.163V46Z" fill="white"/>
<path d="M164.132 46H141.351V12.0679H164.132V18.8591H148.002V25.6502H158.917V32.4414H148.002V39.2088H164.132V46Z" fill="white"/>
<path d="M188.349 32.4414V25.6502C188.349 24.7195 188.171 23.844 187.816 23.0237C187.476 22.1876 187.005 21.4619 186.402 20.8467C185.8 20.2315 185.089 19.7503 184.27 19.4033C183.467 19.0405 182.609 18.8591 181.698 18.8591C180.786 18.8591 179.921 19.0405 179.102 19.4033C178.299 19.7503 177.596 20.2315 176.993 20.8467C176.391 21.4619 175.912 22.1876 175.557 23.0237C175.217 23.844 175.047 24.7195 175.047 25.6502V32.4414H188.349ZM195 46H188.349V39.2088H175.047V46H168.419V25.6502C168.419 23.773 168.766 22.0141 169.462 20.3735C170.157 18.7171 171.099 17.2737 172.289 16.0432C173.494 14.8128 174.9 13.8426 176.507 13.1327C178.129 12.4228 179.859 12.0679 181.698 12.0679C183.536 12.0679 185.259 12.4228 186.866 13.1327C188.488 13.8426 189.902 14.8128 191.107 16.0432C192.312 17.2737 193.262 18.7171 193.957 20.3735C194.652 22.0141 195 23.773 195 25.6502V46Z" fill="white"/>
<path d="M38.4814 192H12.7973V89.6179H0V64H38.4814V192Z" fill="white"/>
<path d="M149.093 102.382C149.093 107.678 148.079 112.677 146.05 117.378C144.022 122.02 141.247 126.096 137.727 129.607C134.267 133.058 130.21 135.795 125.557 137.819C120.903 139.842 115.921 140.854 110.612 140.854H97.7247C95.9349 140.854 94.2644 141.181 92.7132 141.835C91.162 142.49 89.7898 143.412 88.5966 144.603C87.4631 145.733 86.5681 147.072 85.9119 148.619C85.2556 150.166 84.9275 151.833 84.9275 153.618V166.382H145.603V192H59.2434V153.618C59.2434 148.322 60.2576 143.353 62.2861 138.711C64.3146 134.01 67.059 129.934 70.5193 126.483C74.0393 122.972 78.1261 120.234 82.7797 118.271C87.4332 116.247 92.4149 115.236 97.7247 115.236H110.612C112.401 115.236 114.072 114.908 115.623 114.254C117.174 113.599 118.517 112.707 119.65 111.576C120.843 110.386 121.768 109.017 122.424 107.47C123.081 105.863 123.409 104.167 123.409 102.382C123.409 100.597 123.081 98.9307 122.424 97.3835C121.768 95.8364 120.843 94.4974 119.65 93.3668C118.517 92.1767 117.174 91.2543 115.623 90.5997C114.072 89.9451 112.401 89.6179 110.612 89.6179H64.7919V64H110.612C115.921 64 120.903 65.0116 125.557 67.0349C130.21 69.0581 134.267 71.8252 137.727 75.3361C141.247 78.7875 144.022 82.834 146.05 87.4756C148.079 92.1172 149.093 97.086 149.093 102.382Z" fill="white"/>
<path d="M264 166.382H251.203V192H225.519V166.382H161.353L175.672 64H201.356L190.169 140.854H225.519V76.8536H251.203V140.854H264V166.382Z" fill="white"/>
</svg>
