<svg width="150" height="192" viewBox="0 0 150 192" fill="none" xmlns="http://www.w3.org/2000/svg">
<path d="M35.5826 46H12.5V12.0679H19.0983V39.2088H35.5826V46Z" fill="white"/>
<path d="M45.6295 46H39.0312V12.0679H45.6295V46ZM42.3418 10.0802L39.7439 6.55453L46.5721 0L50.3426 4.94547L42.3418 10.0802Z" fill="white"/>
<path d="M78.1382 46H71.0801L58.3663 23.6626V46H51.768V12.0679H58.8261L71.5399 34.429V12.0679H78.1382V46Z" fill="white"/>
<path d="M106.876 46H84.2767V12.0679H106.876V18.8591H90.875V25.6502H101.704V32.4414H90.875V39.2088H106.876V46Z" fill="white"/>
<path d="M130.902 32.4414V25.6502C130.902 24.7195 130.725 23.844 130.373 23.0237C130.036 22.1876 129.568 21.4619 128.97 20.8467C128.373 20.2315 127.668 19.7503 126.855 19.4033C126.058 19.0405 125.208 18.8591 124.303 18.8591C123.399 18.8591 122.541 19.0405 121.728 19.4033C120.931 19.7503 120.234 20.2315 119.636 20.8467C119.039 21.4619 118.563 22.1876 118.211 23.0237C117.874 23.844 117.705 24.7195 117.705 25.6502V32.4414H130.902ZM137.5 46H130.902V39.2088H117.705V46H111.13V25.6502C111.13 23.773 111.475 22.0141 112.164 20.3735C112.854 18.7171 113.789 17.2737 114.969 16.0432C116.165 14.8128 117.559 13.8426 119.153 13.1327C120.763 12.4228 122.479 12.0679 124.303 12.0679C126.127 12.0679 127.836 12.4228 129.43 13.1327C131.04 13.8426 132.442 14.8128 133.638 16.0432C134.833 17.2737 135.776 18.7171 136.465 20.3735C137.155 22.0141 137.5 23.773 137.5 25.6502V46Z" fill="white"/>
<path d="M38.9574 192H13.2893V89.6179H0.5V64H38.9574V192Z" fill="white"/>
<path d="M149.5 102.382C149.5 107.678 148.486 112.677 146.459 117.378C144.432 122.02 141.659 126.096 138.142 129.607C134.683 133.058 130.629 135.795 125.978 137.819C121.328 139.842 116.349 140.854 111.043 140.854H98.1639C96.3752 140.854 94.7057 141.181 93.1555 141.835C91.6052 142.49 90.2339 143.412 89.0414 144.603C87.9086 145.733 87.0142 147.072 86.3583 148.619C85.7025 150.166 85.3745 151.833 85.3745 153.618V166.382H146.012V192H59.7065V153.618C59.7065 148.322 60.7201 143.353 62.7473 138.711C64.7745 134.01 67.5172 129.934 70.9754 126.483C74.4932 122.972 78.5774 120.234 83.2281 118.271C87.8788 116.247 92.8573 115.236 98.1639 115.236H111.043C112.831 115.236 114.501 114.908 116.051 114.254C117.601 113.599 118.943 112.707 120.076 111.576C121.268 110.386 122.192 109.017 122.848 107.47C123.504 105.863 123.832 104.167 123.832 102.382C123.832 100.597 123.504 98.9307 122.848 97.3835C122.192 95.8364 121.268 94.4974 120.076 93.3668C118.943 92.1767 117.601 91.2543 116.051 90.5997C114.501 89.9451 112.831 89.6179 111.043 89.6179H65.2515V64H111.043C116.349 64 121.328 65.0116 125.978 67.0349C130.629 69.0581 134.683 71.8252 138.142 75.3361C141.659 78.7875 144.432 82.834 146.459 87.4756C148.486 92.1172 149.5 97.086 149.5 102.382Z" fill="white"/>
</svg>
