<svg width="166" height="175" viewBox="0 0 166 175" fill="none" xmlns="http://www.w3.org/2000/svg">
<path d="M30.8269 173.657H18.5301V123.955H0V111.516H49.3185V123.955H30.8269V173.657Z" fill="white"/>
<path d="M104.701 173.657H92.3574V161.218H67.6789V173.657H55.3821V136.386C55.3821 132.947 56.0293 129.716 57.316 126.704C58.6027 123.683 60.3594 121.051 62.5861 118.792C64.8051 116.54 67.417 114.762 70.4142 113.465C73.4113 112.168 76.6165 111.516 80.022 111.516C83.4276 111.516 86.6328 112.168 89.6299 113.465C92.6271 114.762 95.239 116.54 97.4734 118.792C99.7078 121.043 101.472 123.683 102.759 126.704C104.046 129.724 104.693 132.954 104.693 136.386V173.657H104.701ZM92.3574 148.825V136.386C92.3574 134.686 92.0338 133.071 91.3866 131.557C90.7394 130.043 89.8611 128.715 88.7439 127.589C87.6267 126.463 86.3169 125.57 84.8067 124.926C83.3043 124.273 81.7017 123.947 80.0143 123.947C78.327 123.947 76.7244 124.273 75.222 124.926C73.7195 125.578 72.402 126.463 71.2848 127.589C70.1676 128.715 69.2815 130.035 68.642 131.557C67.9948 133.071 67.6712 134.686 67.6712 136.386V148.825H92.3497H92.3574Z" fill="white"/>
<path d="M163.35 167.29C160.483 169.774 157.27 171.685 153.719 173.012C150.167 174.34 146.484 175.008 142.67 175.008C139.742 175.008 136.93 174.627 134.218 173.859C131.506 173.09 128.971 172.011 126.605 170.605C124.24 169.208 122.083 167.523 120.133 165.558C118.184 163.594 116.512 161.42 115.125 159.036C113.738 156.652 112.66 154.098 111.897 151.364C111.134 148.631 110.757 145.797 110.757 142.847C110.757 139.896 111.134 137.054 111.897 134.313C112.66 131.572 113.731 129.002 115.125 126.618C116.512 124.235 118.184 122.061 120.133 120.096C122.083 118.132 124.24 116.447 126.605 115.049C128.971 113.651 131.506 112.564 134.218 111.796C136.93 111.027 139.742 110.646 142.67 110.646C146.484 110.646 150.167 111.306 153.719 112.619C157.27 113.931 160.483 115.849 163.35 118.357L156.816 129.189C155.013 127.224 152.871 125.718 150.413 124.662C147.948 123.606 145.367 123.078 142.67 123.078C139.973 123.078 137.392 123.598 135.019 124.638C132.638 125.679 130.558 127.084 128.786 128.862C127.006 130.64 125.604 132.737 124.571 135.144C123.539 137.559 123.023 140.121 123.023 142.839C123.023 145.556 123.539 148.103 124.571 150.487C125.604 152.871 127.006 154.959 128.786 156.745C130.566 158.539 132.638 159.952 135.019 160.993C137.4 162.033 139.95 162.553 142.67 162.553C145.39 162.553 147.948 162.025 150.413 160.969C152.879 159.913 155.013 158.407 156.816 156.442L163.35 167.274V167.29Z" fill="white"/>
<path d="M31.8979 37.6587V93.2226H0.261963V1.63062H52.3773C49.2722 3.44755 46.46 5.63718 43.9713 8.16846C40.2576 11.9188 37.299 16.3757 35.1493 21.3917C32.992 26.4465 31.8979 31.9283 31.8979 37.6587Z" fill="white"/>
<path d="M94.2991 93.2227H36.49V37.6587C36.49 32.5418 37.4454 27.7277 39.3716 23.2242C41.2901 18.7207 43.9097 14.7996 47.2151 11.4375C50.5358 8.06761 54.4191 5.42762 58.8879 3.48646C60.6831 2.70999 62.5168 2.09658 64.4045 1.6307C67.2322 0.924117 70.1677 0.574707 73.2265 0.574707C73.9045 0.574707 74.5825 0.598001 75.2606 0.62906C76.031 0.660118 76.8015 0.73 77.5566 0.823176C81.0392 1.21917 84.383 2.09658 87.5497 3.47093C88.274 3.78151 88.9751 4.11539 89.6608 4.4648C87.0335 6.28174 84.5603 8.3549 82.295 10.6377C80.5846 12.3615 78.9974 14.1939 77.5489 16.1351C76.7476 17.2144 75.9771 18.3247 75.2529 19.4661C74.883 20.033 74.544 20.5998 74.205 21.1821C73.7658 21.9353 73.3421 22.6962 72.9568 23.4882C71.3003 26.6717 69.9674 30.0727 68.9811 33.6134C67.7638 38.047 67.1397 42.698 67.1397 47.45C67.1397 52.202 67.7638 56.8375 68.9889 61.2478C69.9674 64.7807 71.3003 68.1583 72.9491 71.3419C73.3421 72.1261 73.7658 72.8948 74.1973 73.648C74.5286 74.2303 74.883 74.8049 75.2452 75.364C75.954 76.5131 76.7245 77.6079 77.5412 78.6872C78.9897 80.6284 80.5846 82.4764 82.295 84.2001C85.4232 87.3526 88.9443 90.1013 92.7505 92.353C93.259 92.6559 93.7752 92.9432 94.2914 93.2227H94.2991Z" fill="white"/>
<path d="M166 47.3877C166 51.7282 165.438 55.9289 164.32 59.9743C163.195 64.0274 161.608 67.801 159.566 71.3184C157.509 74.8281 155.051 78.0349 152.178 80.9233C149.304 83.8195 146.122 86.2965 142.647 88.3696C139.156 90.4273 135.42 92.0268 131.421 93.1527C128.169 94.0767 124.818 94.5969 121.358 94.7755C120.696 94.8065 120.041 94.8298 119.386 94.8454C119.247 94.8454 119.109 94.8531 118.97 94.8531H118.754C118.631 94.8531 118.5 94.8454 118.361 94.8454C117.683 94.8376 117.021 94.8143 116.343 94.7755C115.834 94.7522 115.341 94.7211 114.84 94.6746C114.763 94.6746 114.694 94.6668 114.609 94.6513H114.601C113.831 94.5814 113.076 94.5037 112.313 94.395C110.371 94.1388 108.445 93.7506 106.557 93.2226C106.48 93.1993 106.388 93.176 106.303 93.1527C102.32 92.0268 98.5752 90.435 95.0927 88.3696C91.6024 86.2965 88.4203 83.8195 85.5464 80.9233C82.6725 78.0271 80.2147 74.8203 78.1729 71.3184C77.9572 70.9457 77.7491 70.5808 77.5488 70.2081C76.6859 68.6552 75.9154 67.0479 75.2528 65.394C74.5439 63.6547 73.9353 61.8611 73.4113 60.0131C73.2418 59.4074 73.0877 58.8096 72.949 58.1962C72.1323 54.7331 71.7317 51.1614 71.7317 47.4654C71.7317 43.7694 72.1323 40.1821 72.949 36.7113C73.0877 36.0979 73.2341 35.4845 73.4113 34.8789C73.9276 33.0154 74.5362 31.2062 75.2528 29.4591C75.9308 27.8053 76.6859 26.198 77.5488 24.645C77.7414 24.2723 77.9495 23.9074 78.1729 23.5347C80.2147 20.0251 82.6725 16.8183 85.5464 13.9298C88.1429 11.3131 90.9783 9.04583 94.0833 7.11243C94.4146 6.89502 94.7459 6.68538 95.0927 6.48349C95.4702 6.26608 95.8477 6.04091 96.2407 5.8235C96.988 5.41974 97.7431 5.02374 98.5136 4.65103C100.995 3.44751 103.591 2.4614 106.303 1.68493C109.555 0.768702 112.922 0.248469 116.373 0.0776466C117.028 0.046588 117.683 0.023294 118.346 0.00776466C118.484 0.00776466 118.608 0 118.746 0H118.962C119.085 0 119.224 0.00776466 119.355 0.00776466C120.033 0.0155293 120.711 0.0388233 121.374 0.0776466C121.882 0.100941 122.383 0.131999 122.876 0.178587C122.953 0.178587 123.038 0.186352 123.115 0.201881C125.95 0.442586 128.724 0.93176 131.405 1.68493C135.404 2.81857 139.133 4.41809 142.631 6.47573C146.114 8.5489 149.296 11.0258 152.162 13.922C155.036 16.8183 157.494 20.0251 159.551 23.5269C161.593 27.0443 163.18 30.8102 164.305 34.84C165.422 38.8699 165.985 43.0473 165.985 47.3877H166Z" fill="white"/>
</svg>
