<svg width="170" height="180" viewBox="0 0 170 180" fill="none" xmlns="http://www.w3.org/2000/svg">
<path d="M32.0622 177.641H19.4492V127.043H0.434692V114.38H51.0214V127.043H32.0543V177.641H32.0622Z" fill="black"/>
<path d="M105.718 177.641H93.057V164.977H67.7439V177.641H55.1309V139.698C55.1309 136.197 55.7947 132.908 57.1145 129.841C58.4343 126.766 60.2362 124.087 62.5201 121.787C64.7961 119.494 67.4752 117.684 70.5495 116.364C73.6237 115.044 76.9113 114.38 80.4044 114.38C83.8975 114.38 87.1852 115.044 90.2594 116.364C93.3336 117.684 96.0127 119.494 98.3046 121.787C100.596 124.079 102.406 126.766 103.726 129.841C105.046 132.916 105.71 136.205 105.71 139.698V177.641H105.718ZM93.057 152.362V139.698C93.057 137.967 92.7251 136.323 92.0613 134.782C91.3974 133.24 90.4965 131.889 89.3506 130.742C88.2046 129.596 86.8611 128.687 85.3122 128.031C83.7711 127.367 82.1273 127.035 80.3965 127.035C78.6658 127.035 77.022 127.367 75.4809 128.031C73.9398 128.695 72.5884 129.596 71.4425 130.742C70.2966 131.889 69.3878 133.232 68.7318 134.782C68.068 136.323 67.736 137.967 67.736 139.698V152.362H93.0491H93.057Z" fill="black"/>
<path d="M167.194 171.159C164.255 173.688 160.959 175.633 157.316 176.984C153.673 178.336 149.895 179.016 145.983 179.016C142.98 179.016 140.095 178.629 137.313 177.846C134.532 177.064 131.932 175.965 129.505 174.534C127.079 173.111 124.866 171.396 122.867 169.396C120.867 167.396 119.153 165.183 117.73 162.756C116.307 160.329 115.201 157.729 114.419 154.946C113.636 152.164 113.249 149.279 113.249 146.275C113.249 143.271 113.636 140.378 114.419 137.588C115.201 134.798 116.3 132.181 117.73 129.754C119.153 127.328 120.867 125.114 122.867 123.115C124.866 121.115 127.079 119.399 129.505 117.977C131.932 116.554 134.532 115.447 137.313 114.665C140.095 113.882 142.98 113.495 145.983 113.495C149.895 113.495 153.673 114.167 157.316 115.502C160.959 116.838 164.255 118.791 167.194 121.344L160.493 132.371C158.643 130.371 156.446 128.837 153.925 127.762C151.396 126.687 148.749 126.15 145.983 126.15C143.217 126.15 140.569 126.68 138.135 127.739C135.693 128.798 133.56 130.229 131.742 132.039C129.916 133.849 128.478 135.983 127.419 138.434C126.36 140.892 125.83 143.501 125.83 146.267C125.83 149.034 126.36 151.626 127.419 154.053C128.478 156.48 129.916 158.606 131.742 160.424C133.567 162.25 135.693 163.689 138.135 164.748C140.577 165.807 143.193 166.337 145.983 166.337C148.773 166.337 151.396 165.799 153.925 164.724C156.454 163.649 158.643 162.116 160.493 160.116L167.194 171.143V171.159Z" fill="black"/>
<path d="M0 1.66797V20.3308V94.9108H28.0159H46.6115H74.5642V20.3308V1.66797H0Z" fill="#DB0812"/>
<path d="M111.85 94.9108H37.286V38.9857C37.286 33.8239 38.2581 28.9863 40.2101 24.457C42.1621 19.9276 44.8175 15.9674 48.1763 12.5921C51.535 9.20897 55.4786 6.54512 60.0069 4.59268C64.5353 2.64024 69.3798 1.66797 74.5404 1.66797C79.7011 1.66797 84.5377 2.64024 89.066 4.59268C93.5944 6.54512 97.5538 9.20897 100.928 12.5921C104.311 15.9753 106.974 19.9276 108.926 24.457C110.878 28.9863 111.85 33.8318 111.85 38.9857V94.9029V94.9108Z" fill="#C6C5C0"/>
<path d="M168.277 35.4762C167.131 31.3816 165.503 27.5399 163.401 23.967C161.299 20.3941 158.778 17.1295 155.83 14.1811C152.882 11.2327 149.618 8.71113 146.046 6.6085C142.474 4.50588 138.633 2.87752 134.54 1.73135C131.781 0.956703 128.936 0.466616 126.036 0.213669C125.957 0.213669 125.87 0.19786 125.791 0.189955C125.277 0.150432 124.764 0.118813 124.25 0.0871949C123.562 0.0476718 122.875 0.023958 122.179 0.0160534C122.045 0.0160534 121.911 0.000244141 121.768 0.000244141C121.729 0.000244141 121.697 0.000244141 121.658 0.000244141C121.618 0.000244141 121.587 0.000244141 121.547 0.000244141C121.405 0.000244141 121.271 0.0160534 121.128 0.0160534C120.449 0.023958 119.777 0.0476718 119.105 0.0792903C115.557 0.253192 112.111 0.790706 108.776 1.72345C104.682 2.86962 100.841 4.49797 97.2693 6.6006C93.6972 8.70323 90.4333 11.2248 87.4855 14.1732C84.5377 17.1216 82.0167 20.3862 79.9145 23.9591C77.8123 27.532 76.1843 31.3816 75.0384 35.4999C73.8925 39.6182 73.3156 43.8867 73.3156 48.3132C73.3156 52.7398 73.8925 56.9925 75.0384 61.0871C76.1843 65.1817 77.8123 69.0233 79.9145 72.5962C82.0167 76.1691 84.5377 79.4337 87.4855 82.3821C90.4333 85.3306 93.6972 87.8521 97.2693 89.9548C100.841 92.0574 104.682 93.6857 108.776 94.8319C111.534 95.6066 114.379 96.0966 117.28 96.3496C117.359 96.3496 117.446 96.3654 117.525 96.3733C118.038 96.4128 118.552 96.4445 119.066 96.4761C119.753 96.5156 120.441 96.5393 121.136 96.5472C121.271 96.5472 121.405 96.563 121.547 96.563C121.587 96.563 121.618 96.563 121.658 96.563C121.697 96.563 121.729 96.563 121.768 96.563C121.911 96.563 122.045 96.5472 122.187 96.5472C122.867 96.5393 123.539 96.5156 124.21 96.484C127.759 96.3101 131.205 95.7726 134.54 94.8398C138.633 93.6936 142.474 92.0653 146.046 89.9627C149.618 87.86 152.882 85.3385 155.83 82.39C158.778 79.4416 161.299 76.177 163.401 72.6041C165.503 69.0312 167.131 65.1817 168.277 61.0634C169.423 56.9451 170 52.6766 170 48.25C170 43.8234 169.423 39.5707 168.277 35.4762Z" fill="#1D71B8"/>
</svg>
