<svg width="117" height="26" viewBox="0 0 117 26" fill="none" xmlns="http://www.w3.org/2000/svg">
<path d="M64.468 24.9782H59.6544V5.66947H52.4008V0.840778H71.7065V5.67248H64.468V24.9782Z" fill="white"/>
<path d="M93.3859 24.9782H88.5542V20.1465H78.8938V24.9782H74.0802V10.5012C74.0802 9.16506 74.3335 7.91039 74.8372 6.74016C75.3409 5.56692 76.0285 4.54448 76.9002 3.66681C77.7688 2.79216 78.7912 2.10149 79.9645 1.59781C81.1377 1.09413 82.3924 0.840778 83.7255 0.840778C85.0586 0.840778 86.3133 1.09413 87.4865 1.59781C88.6597 2.10149 89.6822 2.79216 90.5568 3.66681C91.4315 4.54147 92.1222 5.56692 92.6258 6.74016C93.1295 7.91341 93.3829 9.16808 93.3829 10.5012V24.9782H93.3859ZM88.5542 15.3329V10.5012C88.5542 9.84066 88.4275 9.21332 88.1742 8.62519C87.9208 8.03706 87.577 7.52132 87.1396 7.08399C86.7023 6.64667 86.1896 6.29982 85.5984 6.04949C85.0103 5.79614 84.383 5.66947 83.7225 5.66947C83.062 5.66947 82.4346 5.79614 81.8465 6.04949C81.2584 6.30284 80.7426 6.64667 80.3053 7.08399C79.868 7.52132 79.5211 8.03405 79.2708 8.62519C79.0174 9.21332 78.8908 9.84066 78.8908 10.5012V15.3329H88.5542Z" fill="white"/>
<path d="M116.344 22.5021C115.222 23.4672 113.964 24.2091 112.574 24.7249C111.183 25.2406 109.742 25.5 108.249 25.5C107.103 25.5 106.002 25.3522 104.94 25.0536C103.879 24.755 102.886 24.3358 101.96 23.7899C101.034 23.247 100.19 22.5925 99.4269 21.8295C98.6639 21.0664 98.0094 20.2219 97.4665 19.296C96.9236 18.3701 96.5014 17.3778 96.2028 16.3161C95.9042 15.2545 95.7564 14.1536 95.7564 13.0075C95.7564 11.8614 95.9042 10.7576 96.2028 9.69291C96.5014 8.62824 96.9206 7.62993 97.4665 6.70401C98.0094 5.77808 98.6639 4.93359 99.4269 4.17053C100.19 3.40747 101.034 2.75299 101.96 2.2101C102.886 1.66721 103.879 1.24496 104.94 0.946375C106.002 0.647786 107.103 0.5 108.249 0.5C109.742 0.5 111.183 0.756363 112.574 1.26608C113.964 1.77579 115.222 2.52075 116.344 3.49493L113.786 7.70232C113.081 6.93926 112.242 6.35414 111.28 5.94396C110.315 5.53378 109.304 5.32869 108.249 5.32869C107.193 5.32869 106.183 5.53076 105.254 5.93491C104.322 6.33906 103.508 6.88497 102.814 7.57564C102.117 8.26632 101.568 9.08065 101.164 10.0156C100.76 10.9536 100.558 11.9489 100.558 13.0045C100.558 14.0601 100.76 15.0494 101.164 15.9753C101.568 16.9013 102.117 17.7126 102.814 18.4063C103.511 19.103 104.322 19.6519 105.254 20.056C106.186 20.4602 107.184 20.6623 108.249 20.6623C109.314 20.6623 110.315 20.4572 111.28 20.047C112.245 19.6368 113.081 19.0517 113.786 18.2886L116.344 22.496V22.5021Z" fill="white"/>
<path d="M8.30619 10.3502V24.8273H0V0.9643H13.6838C12.8695 1.43782 12.1305 2.00785 11.4761 2.66837C10.5019 3.64556 9.72373 4.80674 9.15973 6.11269C8.59271 7.4307 8.30619 8.85729 8.30619 10.3502Z" fill="white"/>
<path d="M24.6924 24.8273H9.51265V10.3503C9.51265 9.01722 9.76297 7.76254 10.2697 6.5893C10.7733 5.41606 11.461 4.39362 12.3296 3.51897C13.2013 2.6413 14.2207 1.95364 15.3939 1.44695C15.8644 1.24487 16.347 1.08502 16.8416 0.964378C17.5836 0.7804 18.3557 0.689919 19.158 0.689919C19.3359 0.689919 19.5138 0.69595 19.6918 0.704998C19.8939 0.714046 20.0959 0.732143 20.295 0.756271C21.2089 0.858817 22.0865 1.08804 22.919 1.44695C23.109 1.52838 23.293 1.61584 23.4739 1.70633C22.7832 2.17984 22.1348 2.71972 21.5406 3.31388C21.0912 3.76327 20.675 4.2398 20.295 4.7465C20.0839 5.02699 19.8818 5.31653 19.6918 5.61512C19.5953 5.76291 19.5048 5.91069 19.4173 6.06149C19.3027 6.25754 19.1911 6.4566 19.0886 6.66169C18.6543 7.4911 18.3044 8.37782 18.045 9.30073C17.7253 10.4559 17.5625 11.6683 17.5625 12.9049C17.5625 14.1415 17.7253 15.3509 18.048 16.5C18.3044 17.4199 18.6543 18.3006 19.0886 19.13C19.1911 19.3351 19.3027 19.5342 19.4173 19.7302C19.5048 19.881 19.5983 20.0318 19.6918 20.1766C19.8788 20.4752 20.0809 20.7617 20.295 21.0422C20.675 21.5489 21.0943 22.0284 21.5436 22.4778C22.364 23.2982 23.2899 24.016 24.2883 24.6011C24.421 24.6795 24.5567 24.7549 24.6924 24.8273Z" fill="white"/>
<path d="M43.5186 12.8867C43.5186 14.0178 43.3708 15.1126 43.0782 16.1652C42.7826 17.2208 42.3664 18.204 41.8296 19.1209C41.2897 20.0348 40.6443 20.8702 39.8902 21.6242C39.1362 22.3782 38.3008 23.0237 37.3869 23.5635C36.4701 24.1004 35.4898 24.5166 34.4403 24.8092C33.5867 25.0505 32.706 25.1862 31.7982 25.2314C31.6233 25.2405 31.4514 25.2465 31.2794 25.2495C31.2432 25.2495 31.2071 25.2525 31.1709 25.2525H31.1136C31.0804 25.2525 31.0472 25.2495 31.011 25.2495C30.8331 25.2465 30.6581 25.2405 30.4802 25.2314C30.3475 25.2254 30.2178 25.2163 30.0851 25.2043C30.064 25.2043 30.0459 25.2043 30.0248 25.1982C29.8227 25.1801 29.6236 25.159 29.4246 25.1319C28.9149 25.0655 28.4082 24.963 27.9135 24.8273C27.8924 24.8212 27.8683 24.8152 27.8472 24.8092C26.8006 24.5166 25.8174 24.1004 24.9035 23.5635C23.9866 23.0237 23.1512 22.3782 22.3972 21.6242C21.6432 20.8702 20.9977 20.0348 20.4609 19.1209C20.4036 19.0244 20.3493 18.9279 20.298 18.8314C20.0718 18.4272 19.8697 18.008 19.6948 17.5767C19.5078 17.1243 19.348 16.6568 19.2122 16.1742C19.167 16.0174 19.1278 15.8606 19.0916 15.7007C18.8775 14.7989 18.7719 13.867 18.7719 12.9048C18.7719 11.9427 18.8775 11.0078 19.0916 10.1029C19.1278 9.94309 19.167 9.78324 19.2122 9.6264C19.348 9.14082 19.5078 8.67032 19.6948 8.21489C19.8728 7.7836 20.0718 7.36437 20.298 6.96022C20.3493 6.86371 20.4036 6.76719 20.4609 6.67068C20.9977 5.75682 21.6432 4.92137 22.3972 4.16736C23.0788 3.48573 23.8238 2.89459 24.6381 2.39091C24.7256 2.33361 24.813 2.27932 24.9035 2.22804C25.003 2.17074 25.1026 2.11343 25.2051 2.05613C25.4012 1.95057 25.6002 1.84802 25.8023 1.75151C26.4538 1.43784 27.1354 1.18148 27.8472 0.979401C28.7007 0.741133 29.5844 0.60541 30.4923 0.560169C30.6642 0.551121 30.8361 0.54509 31.011 0.542074C31.0472 0.542074 31.0804 0.539059 31.1166 0.539059H31.1739C31.2071 0.539059 31.2433 0.542074 31.2764 0.542074C31.4544 0.54509 31.6323 0.551121 31.8073 0.560169C31.94 0.566201 32.0727 0.57525 32.2023 0.587315C32.2235 0.587315 32.2446 0.590332 32.2657 0.593348C33.0107 0.656685 33.7375 0.783358 34.4433 0.979401C35.4929 1.27497 36.4731 1.69119 37.3899 2.22804C38.3038 2.76792 39.1393 3.41335 39.8933 4.16736C40.6473 4.92137 41.2927 5.75682 41.8326 6.67068C42.3694 7.58756 42.7857 8.56777 43.0812 9.61735C43.3738 10.6669 43.5216 11.7557 43.5216 12.8867H43.5186Z" fill="white"/>
</svg>
