<svg width="20" height="21" viewBox="0 0 20 21" fill="none" xmlns="http://www.w3.org/2000/svg">
<path d="M5.8 0.554199H14.2C17.4 0.554199 20 3.1542 20 6.3542V14.7542C20 16.2925 19.3889 17.7677 18.3012 18.8554C17.2135 19.9431 15.7383 20.5542 14.2 20.5542H5.8C2.6 20.5542 0 17.9542 0 14.7542V6.3542C0 4.81594 0.61107 3.34069 1.69878 2.25298C2.78649 1.16527 4.26174 0.554199 5.8 0.554199ZM5.6 2.5542C4.64522 2.5542 3.72955 2.93348 3.05442 3.60861C2.37928 4.28375 2 5.19942 2 6.1542V14.9542C2 16.9442 3.61 18.5542 5.6 18.5542H14.4C15.3548 18.5542 16.2705 18.1749 16.9456 17.4998C17.6207 16.8247 18 15.909 18 14.9542V6.1542C18 4.1642 16.39 2.5542 14.4 2.5542H5.6ZM15.25 4.0542C15.5815 4.0542 15.8995 4.1859 16.1339 4.42032C16.3683 4.65474 16.5 4.97268 16.5 5.3042C16.5 5.63572 16.3683 5.95366 16.1339 6.18808C15.8995 6.4225 15.5815 6.5542 15.25 6.5542C14.9185 6.5542 14.6005 6.4225 14.3661 6.18808C14.1317 5.95366 14 5.63572 14 5.3042C14 4.97268 14.1317 4.65474 14.3661 4.42032C14.6005 4.1859 14.9185 4.0542 15.25 4.0542ZM10 5.5542C11.3261 5.5542 12.5979 6.08098 13.5355 7.01867C14.4732 7.95635 15 9.22812 15 10.5542C15 11.8803 14.4732 13.1521 13.5355 14.0897C12.5979 15.0274 11.3261 15.5542 10 15.5542C8.67392 15.5542 7.40215 15.0274 6.46447 14.0897C5.52678 13.1521 5 11.8803 5 10.5542C5 9.22812 5.52678 7.95635 6.46447 7.01867C7.40215 6.08098 8.67392 5.5542 10 5.5542ZM10 7.5542C9.20435 7.5542 8.44129 7.87027 7.87868 8.43288C7.31607 8.99549 7 9.75855 7 10.5542C7 11.3498 7.31607 12.1129 7.87868 12.6755C8.44129 13.2381 9.20435 13.5542 10 13.5542C10.7956 13.5542 11.5587 13.2381 12.1213 12.6755C12.6839 12.1129 13 11.3498 13 10.5542C13 9.75855 12.6839 8.99549 12.1213 8.43288C11.5587 7.87027 10.7956 7.5542 10 7.5542Z" fill="white"/>
</svg>
