<svg width="394" height="85" viewBox="0 0 394 85" fill="none" xmlns="http://www.w3.org/2000/svg">
<path d="M219.272 83.0904H202.969V17.566H178.401V1.16699H243.789V17.566H219.272V83.0904Z" fill="black"/>
<path d="M314.479 83.0904H298.114V66.6914H265.394V83.0904H249.091V33.9548C249.091 29.42 249.949 25.1616 251.655 21.1898C253.361 17.2077 255.69 13.7375 258.642 10.7587C261.584 7.79006 265.047 5.44588 269.021 3.73637C272.995 2.02686 277.244 1.16699 281.759 1.16699C286.275 1.16699 290.524 2.02686 294.498 3.73637C298.472 5.44588 301.935 7.79006 304.897 10.7587C307.86 13.7273 310.199 17.2077 311.905 21.1898C313.611 25.1718 314.469 29.4302 314.469 33.9548V83.0904H314.479ZM298.114 50.3538V33.9548C298.114 31.713 297.685 29.5838 296.827 27.5876C295.969 25.5915 294.804 23.841 293.323 22.3567C291.842 20.8724 290.105 19.6952 288.103 18.8456C286.111 17.9857 283.986 17.5558 281.749 17.5558C279.512 17.5558 277.387 17.9857 275.395 18.8456C273.403 19.7055 271.656 20.8724 270.175 22.3567C268.694 23.841 267.519 25.5813 266.671 27.5876C265.813 29.5838 265.384 31.713 265.384 33.9548V50.3538H298.104H298.114Z" fill="black"/>
<path d="M393.944 74.6964C390.144 77.9721 385.884 80.4903 381.175 82.2408C376.466 83.9913 371.583 84.8716 366.526 84.8716C362.644 84.8716 358.916 84.37 355.32 83.3566C351.724 82.3432 348.363 80.9203 345.227 79.0675C342.091 77.2249 339.231 75.0035 336.646 72.4137C334.062 69.8238 331.845 66.9576 330.006 63.8149C328.168 60.6723 326.738 57.3045 325.726 53.7012C324.715 50.0979 324.214 46.3616 324.214 42.4716C324.214 38.5817 324.715 34.8352 325.726 31.2216C326.738 27.6081 328.157 24.2198 330.006 21.0772C331.845 17.9345 334.062 15.0683 336.646 12.4784C339.231 9.88858 342.091 7.66724 345.227 5.82465C348.363 3.98207 351.724 2.54894 355.32 1.53552C358.916 0.5221 362.644 0.0205078 366.526 0.0205078C371.583 0.0205078 376.466 0.890617 381.175 2.6206C385.884 4.35058 390.144 6.87902 393.944 10.1854L385.282 24.4655C382.891 21.8756 380.051 19.8897 376.793 18.4976C373.524 17.1054 370.102 16.4093 366.526 16.4093C362.951 16.4093 359.529 17.0951 356.382 18.4668C353.226 19.8385 350.468 21.6914 348.118 24.0355C345.759 26.3797 343.899 29.1436 342.53 32.317C341.162 35.5005 340.477 38.8786 340.477 42.4614C340.477 46.0442 341.162 49.4018 342.53 52.5445C343.899 55.6871 345.759 58.4407 348.118 60.7951C350.478 63.1598 353.226 65.0229 356.382 66.3946C359.539 67.7663 362.92 68.4521 366.526 68.4521C370.132 68.4521 373.524 67.756 376.793 66.3639C380.062 64.9717 382.891 62.9858 385.282 60.3959L393.944 74.676V74.6964Z" fill="black"/>
<path d="M0 1.45361V17.6684V82.4455H24.2921H40.4119H64.6529V17.6684V1.45361H0Z" fill="#DB0812"/>
<path d="M96.9742 82.4455H32.3213V33.8729C32.3213 29.3893 33.1692 25.182 34.8547 21.2512C36.5402 17.3203 38.8489 13.8808 41.7603 10.9429C44.6716 8.00503 48.0938 5.69156 52.0165 3.99229C55.9391 2.29301 60.1377 1.45361 64.612 1.45361C69.0863 1.45361 73.2848 2.30325 77.2075 3.99229C81.1302 5.69156 84.5625 8.00503 87.4943 10.9429C90.4261 13.8808 92.7348 17.3203 94.4305 21.2512C96.1263 25.182 96.9639 29.3893 96.9639 33.8729V82.4455H96.9742Z" fill="#C6C5C0"/>
<path d="M145.895 30.8224C144.905 27.26 143.495 23.9331 141.666 20.8212C139.848 17.7195 137.652 14.884 135.098 12.3249C132.544 9.7657 129.714 7.57507 126.619 5.74272C123.524 3.92061 120.194 2.50797 116.639 1.50478C114.248 0.829165 111.786 0.409464 109.263 0.184259C109.192 0.184259 109.12 0.174022 109.049 0.163785C108.609 0.122839 108.16 0.102366 107.71 0.0716558C107.118 0.040946 106.515 0.0204734 105.913 0.0102368C105.79 0.0102368 105.678 0 105.555 0C105.524 0 105.494 0 105.463 0C105.432 0 105.402 0 105.371 0C105.249 0 105.126 0.0102368 105.003 0.0102368C104.411 0.0102368 103.829 0.040946 103.246 0.0716558C100.172 0.225205 97.1785 0.685852 94.2977 1.49454C90.7428 2.48749 87.4228 3.90014 84.3173 5.73249C81.2221 7.56484 78.3925 9.75547 75.8386 12.3146C73.2848 14.8738 71.0987 17.7093 69.2702 20.811C67.4518 23.9127 66.0421 27.26 65.041 30.8326C64.0501 34.4052 63.5496 38.1211 63.5496 41.9598C63.5496 45.7985 64.0501 49.5041 65.041 53.0562C66.0319 56.6186 67.4416 59.9455 69.2702 63.0574C71.0885 66.1591 73.2848 68.9946 75.8386 71.5538C78.3925 74.1129 81.2221 76.3035 84.3173 78.1359C87.4126 79.958 90.7428 81.3706 94.2977 82.3738C96.6881 83.0494 99.15 83.4691 101.673 83.6944C101.745 83.6944 101.816 83.7046 101.888 83.7148C102.327 83.7558 102.776 83.7762 103.226 83.8069C103.818 83.8377 104.421 83.8581 105.024 83.8684C105.146 83.8684 105.259 83.8786 105.381 83.8786C105.412 83.8786 105.443 83.8786 105.473 83.8786C105.504 83.8786 105.535 83.8786 105.565 83.8786C105.688 83.8786 105.81 83.8684 105.933 83.8684C106.525 83.8684 107.108 83.8377 107.69 83.8069C110.765 83.6534 113.758 83.1927 116.639 82.3841C120.194 81.3911 123.514 79.9785 126.619 78.1461C129.714 76.3138 132.544 74.1231 135.098 71.564C137.652 69.0048 139.838 66.1693 141.666 63.0676C143.485 59.9659 144.894 56.6186 145.895 53.046C146.886 49.4734 147.387 45.7575 147.387 41.9188C147.387 38.0801 146.886 34.3745 145.895 30.8224Z" fill="#1D71B8"/>
</svg>
