<svg width="25" height="19" viewBox="0 0 25 19" fill="none" xmlns="http://www.w3.org/2000/svg">
<path d="M23.0263 15.2C23.5332 15.2002 24.0205 15.3882 24.3874 15.7249C24.7542 16.0616 24.9724 16.5213 24.9967 17.0087C25.0211 17.4961 24.8497 17.9738 24.5182 18.3429C24.1866 18.7119 23.7203 18.944 23.2158 18.9911L23.0263 19H1.97368C1.46682 18.9998 0.979481 18.8118 0.612649 18.4751C0.245818 18.1384 0.0276158 17.6787 0.00325755 17.1913C-0.0211007 16.7039 0.150252 16.2262 0.48181 15.8571C0.813367 15.4881 1.27971 15.2559 1.78421 15.2089L1.97368 15.2H23.0263ZM23.0263 7.6C23.5498 7.6 24.0518 7.80018 24.4219 8.1565C24.7921 8.51282 25 8.99609 25 9.5C25 10.0039 24.7921 10.4872 24.4219 10.8435C24.0518 11.1998 23.5498 11.4 23.0263 11.4H1.97368C1.45023 11.4 0.948216 11.1998 0.578079 10.8435C0.207941 10.4872 0 10.0039 0 9.5C0 8.99609 0.207941 8.51282 0.578079 8.1565C0.948216 7.80018 1.45023 7.6 1.97368 7.6H23.0263ZM23.0263 0C23.5498 0 24.0518 0.200178 24.4219 0.556497C24.7921 0.912816 25 1.39609 25 1.9C25 2.40391 24.7921 2.88718 24.4219 3.2435C24.0518 3.59982 23.5498 3.8 23.0263 3.8H1.97368C1.45023 3.8 0.948216 3.59982 0.578079 3.2435C0.207941 2.88718 0 2.40391 0 1.9C0 1.39609 0.207941 0.912816 0.578079 0.556497C0.948216 0.200178 1.45023 0 1.97368 0H23.0263Z" fill="black"/>
</svg>
