<?xml version="1.0" encoding="utf-8"?>
<!-- Generator: Adobe Illustrator 27.1.0, SVG Export Plug-In . SVG Version: 6.00 Build 0)  -->
<svg version="1.1" id="Capa_1" xmlns="http://www.w3.org/2000/svg" xmlns:xlink="http://www.w3.org/1999/xlink" x="0px" y="0px"
	 viewBox="0 0 21 20" style="enable-background:new 0 0 21 20;" xml:space="preserve">
<style type="text/css">
	.st0{fill:#FFFFFF;}
</style>
<path class="st0" d="M10.5,0C5,0,0.5,4.5,0.5,10s4.5,10,10,10s10-4.5,10-10S16,0,10.5,0z M16,15.8c-0.7,0.6-1.5,0.9-2.4,0.9
	c-5.4,0-9.8-4.4-9.8-9.8c0-0.9,0.3-1.7,0.9-2.4C5.3,3.9,6.1,3.4,7,3.3c0.2,0,0.4,0,0.5,0.1s0.3,0.2,0.4,0.4l1.5,3.3
	c0.1,0.1,0.1,0.3,0.1,0.4c0,0.1-0.1,0.3-0.1,0.4c0,0,0,0,0,0L7.7,9.7c0,0,0,0.1,0,0.1c0,0,0,0.1,0,0.1c0.5,1.1,1.7,2.3,2.9,2.8
	c0,0,0.1,0,0.1,0c0,0,0.1,0,0.1,0l1.7-1.5c0,0,0,0,0,0c0.1-0.1,0.2-0.1,0.4-0.1c0.1,0,0.3,0,0.4,0.1l3.3,1.5
	c0.2,0.1,0.3,0.2,0.4,0.4c0.1,0.2,0.1,0.3,0.1,0.5C17.1,14.4,16.6,15.2,16,15.8z"/>
</svg>
