<svg width="20" height="21" viewBox="0 0 20 21" fill="none" xmlns="http://www.w3.org/2000/svg">
<path d="M19.2482 14.526L14.3294 12.3249C14.1387 12.2424 13.9304 12.2087 13.7235 12.2269C13.5165 12.2451 13.3173 12.3146 13.1439 12.4291C13.1301 12.4379 13.1169 12.4476 13.1044 12.4583L10.521 14.6604C10.4635 14.6954 10.3982 14.7158 10.331 14.7196C10.2638 14.7234 10.1967 14.7106 10.1356 14.6822C8.44388 13.8656 6.69281 12.1281 5.87613 10.4562C5.84724 10.3955 5.83384 10.3287 5.83711 10.2616C5.84038 10.1945 5.86023 10.1293 5.89488 10.0718L8.10325 7.44571C8.11367 7.43321 8.12304 7.41966 8.13242 7.40612C8.24657 7.233 8.31587 7.03419 8.33405 6.82761C8.35224 6.62104 8.31874 6.41318 8.23658 6.22278L6.03134 1.3123C5.92488 1.0636 5.74061 0.856146 5.5062 0.721095C5.27178 0.586045 4.99988 0.530688 4.73133 0.563337C3.42044 0.736173 2.2173 1.38029 1.34662 2.37537C0.475943 3.37046 -0.00272915 4.64847 1.17056e-05 5.97069C1.17056e-05 14.0124 6.54177 20.5542 14.5835 20.5542C15.9058 20.5569 17.1838 20.0783 18.1789 19.2076C19.174 18.3369 19.8181 17.1338 19.9909 15.8229C20.0233 15.5556 19.9685 15.2849 19.8347 15.0512C19.7009 14.8175 19.4952 14.6333 19.2482 14.526Z" fill="white"/>
</svg>
