<?xml version="1.0" encoding="utf-8"?>
<!-- Generator: Adobe Illustrator 25.2.1, SVG Export Plug-In . SVG Version: 6.00 Build 0)  -->
<svg version="1.1" id="Capa_1" xmlns="http://www.w3.org/2000/svg" xmlns:xlink="http://www.w3.org/1999/xlink" x="0px" y="0px"
	 viewBox="0 0 24 24" style="enable-background:new 0 0 24 24;" xml:space="preserve">
<style type="text/css">
	.st0{fill:#FFFFFF;}
</style>
<path class="st0" d="M23,16c-0.3-0.3-0.4-0.4-0.8-0.5l-4.4-0.9c-0.3,0-0.7,0-0.9,0.1c-0.2,0.1-0.5,0.3-0.8,0.4l-2.9,3
	c-0.9-0.6-1.6-1-2.4-1.5c-0.8-0.5-1.4-1.1-2-1.8c-0.7-0.7-1.4-1.4-1.9-2.2C6.4,12,6,11.2,5.6,10.4l3-3.1C8.7,7.2,8.8,7.1,9,6.8
	C9,6.5,9.1,6.3,9,6l-1-4.4c0-0.3-0.1-0.5-0.4-0.8C7.5,0.6,7.2,0.5,6.9,0.5H1.8c-0.3,0-0.7,0.1-0.9,0.4S0.5,1.4,0.5,1.8
	c0,2.7,0.7,5.1,1.8,7.8c1,2.6,2.8,4.9,4.9,7.1c2.2,2.2,4.4,3.8,7,4.9c2.6,1.1,5.1,1.8,7.8,1.8c0.4,0,0.7-0.1,1-0.4s0.4-0.7,0.4-1v-5
	C23.3,16.5,23.1,16.3,23,16z"/>
</svg>
